{
	"asset":{
		"generator":"Khronos glTF Blender I/O v4.4.55",
		"version":"2.0"
	},
	"extensionsUsed":[
		"KHR_lights_punctual"
	],
	"extensionsRequired":[
		"KHR_lights_punctual"
	],
	"extensions":{
		"KHR_lights_punctual":{
			"lights":[
				{
					"color":[
						1,
						1,
						1
					],
					"intensity":54351.41306588226,
					"type":"point",
					"name":"Light"
				}
			]
		}
	},
	"scene":0,
	"scenes":[
		{
			"name":"Scene",
			"nodes":[
				0,
				1,
				2,
				3,
				4,
				5,
				6,
				7,
				8,
				9,
				10,
				11,
				12,
				13,
				14,
				15,
				16,
				17,
				18,
				19,
				42
			]
		}
	],
	"nodes":[
		{
			"mesh":0,
			"name":"Cube",
			"scale":[
				1,
				2,
				1
			]
		},
		{
			"extensions":{
				"KHR_lights_punctual":{
					"light":0
				}
			},
			"name":"Light",
			"rotation":[
				-0.28416627645492554,
				0.7269423007965088,
				0.34203392267227173,
				0.5232754945755005
			],
			"translation":[
				4.076245307922363,
				5.903861999511719,
				-1.0054539442062378
			]
		},
		{
			"camera":0,
			"name":"Camera",
			"rotation":[
				-0.20997299253940582,
				0.3857799470424652,
				0.09062844514846802,
				0.8937962055206299
			],
			"translation":[
				7.358891487121582,
				4.958309173583984,
				6.925790786743164
			]
		},
		{
			"name":"Empty",
			"rotation":[
				0.70710688829422,
				0,
				0,
				0.7071066498756409
			],
			"scale":[
				1.4110000133514404,
				1.4110000133514404,
				1.4110000133514404
			],
			"translation":[
				2.4342832565307617,
				0,
				0
			]
		},
		{
			"name":"Empty.001",
			"rotation":[
				0.5,
				0.5,
				-0.5,
				0.5
			],
			"scale":[
				1.4105132818222046,
				1.4105132818222046,
				1.4105132818222046
			]
		},
		{
			"mesh":1,
			"name":"Pelvis",
			"rotation":[
				0.019485309720039368,
				0,
				0,
				0.9998101592063904
			],
			"scale":[
				0.3342277407646179,
				0.29316675662994385,
				0.31517061591148376
			],
			"translation":[
				0,
				0.06848642230033875,
				0.04725315421819687
			]
		},
		{
			"mesh":2,
			"name":"Torso",
			"rotation":[
				-0.07560096681118011,
				0,
				0,
				0.997138261795044
			],
			"scale":[
				0.3578484058380127,
				0.6188281178474426,
				0.29919880628585815
			],
			"translation":[
				0,
				0.7486879825592041,
				-0.03416066989302635
			]
		},
		{
			"mesh":3,
			"name":"Head",
			"rotation":[
				-0.043392203748226166,
				0,
				0,
				0.9990581274032593
			],
			"scale":[
				0.2304038554430008,
				0.3196810483932495,
				0.2302400916814804
			],
			"translation":[
				0,
				1.5700242519378662,
				0.05788184702396393
			]
		},
		{
			"mesh":4,
			"name":"UpperArmL",
			"rotation":[
				0.04101761430501938,
				-0.004729092121124268,
				0.11443736404180527,
				0.9925720691680908
			],
			"scale":[
				0.14046280086040497,
				0.35453128814697266,
				0.1581297069787979
			],
			"translation":[
				0.474263995885849,
				0.9314475059509277,
				-0.1179681047797203
			]
		},
		{
			"mesh":5,
			"name":"ForearmL",
			"rotation":[
				-0.26617497205734253,
				0.023631509393453598,
				0.0852181613445282,
				0.9598595499992371
			],
			"scale":[
				0.11863528192043304,
				0.28896382451057434,
				0.150685653090477
			],
			"translation":[
				0.6035051941871643,
				0.3729206323623657,
				0.019927099347114563
			]
		},
		{
			"mesh":6,
			"name":"ThighL",
			"rotation":[
				0.11308316886425018,
				0.0018952832324430346,
				-0.01665031909942627,
				0.9934442639350891
			],
			"scale":[
				0.16705596446990967,
				0.44304683804512024,
				0.21755681931972504
			],
			"translation":[
				-0.2254599928855896,
				-0.508019745349884,
				0.03163018077611923
			]
		},
		{
			"mesh":7,
			"name":"CalfL",
			"rotation":[
				0,
				0,
				-0.04089335724711418,
				0.9991635084152222
			],
			"scale":[
				0.11658526211977005,
				0.4123460650444031,
				0.18087369203567505
			],
			"translation":[
				-0.3102929890155792,
				-1.3060766458511353,
				-0.10248224437236786
			]
		},
		{
			"mesh":8,
			"name":"HandL",
			"rotation":[
				-0.19037777185440063,
				-0.024305256083607674,
				-0.1242864727973938,
				0.9735084176063538
			],
			"scale":[
				0.06367743760347366,
				0.15596288442611694,
				0.10470568388700485
			],
			"translation":[
				0.623090922832489,
				-0.09018420428037643,
				0.2869497835636139
			]
		},
		{
			"mesh":9,
			"name":"FootL",
			"rotation":[
				0,
				-0.2216489166021347,
				0,
				0.9751265645027161
			],
			"scale":[
				0.1382526159286499,
				0.04018236696720123,
				0.25584840774536133
			],
			"translation":[
				-0.36177098751068115,
				-1.9085077047348022,
				0
			]
		},
		{
			"mesh":10,
			"name":"UpperArmR",
			"rotation":[
				0.04101763293147087,
				0.004729045554995537,
				-0.11443766206502914,
				0.992572009563446
			],
			"scale":[
				0.14046278595924377,
				0.35453125834465027,
				0.1581297069787979
			],
			"translation":[
				-0.474263995885849,
				0.9314475059509277,
				-0.1179681047797203
			]
		},
		{
			"mesh":11,
			"name":"ForearmR",
			"rotation":[
				-0.26617497205734253,
				-0.023631524294614792,
				-0.08521811664104462,
				0.9598595499992371
			],
			"scale":[
				0.11863528192043304,
				0.28896382451057434,
				0.150685653090477
			],
			"translation":[
				-0.60350501537323,
				0.3729206323623657,
				0.019927099347114563
			]
		},
		{
			"mesh":12,
			"name":"HandR",
			"rotation":[
				-0.19037772715091705,
				0.024305202066898346,
				0.12428683787584305,
				0.9735082983970642
			],
			"scale":[
				0.06367743760347366,
				0.15596286952495575,
				0.10470568388700485
			],
			"translation":[
				-0.6230909824371338,
				-0.09018420428037643,
				0.2869497835636139
			]
		},
		{
			"mesh":13,
			"name":"ThighR",
			"rotation":[
				0.11308316886425018,
				-0.0018952925456687808,
				0.016650276258587837,
				0.9934442639350891
			],
			"scale":[
				0.16705596446990967,
				0.44304683804512024,
				0.21755681931972504
			],
			"translation":[
				0.22546043992042542,
				-0.508019745349884,
				0.03163018077611923
			]
		},
		{
			"mesh":14,
			"name":"CalfR",
			"rotation":[
				0,
				0,
				0.040893346071243286,
				0.9991635084152222
			],
			"scale":[
				0.11658526211977005,
				0.4123460650444031,
				0.18087369203567505
			],
			"translation":[
				0.31029289960861206,
				-1.3060766458511353,
				-0.10248224437236786
			]
		},
		{
			"mesh":15,
			"name":"FootR",
			"rotation":[
				0,
				0.22164876759052277,
				0,
				0.9751265645027161
			],
			"scale":[
				0.1382526159286499,
				0.04018236696720123,
				0.25584840774536133
			],
			"translation":[
				0.3617713153362274,
				-1.9085077047348022,
				0
			]
		},
		{
			"name":"Head",
			"translation":[
				0,
				0.07733035087585449,
				0
			]
		},
		{
			"children":[
				20
			],
			"name":"Neck",
			"translation":[
				0,
				0.4670755863189697,
				0
			]
		},
		{
			"name":"Hand.L",
			"rotation":[
				-0.054047632962465286,
				-0.10546747595071793,
				-0.19708578288555145,
				0.9731971621513367
			],
			"scale":[
				1,
				1,
				0.9999999403953552
			],
			"translation":[
				-3.882888677253504e-08,
				0.6996235251426697,
				1.862645149230957e-09
			]
		},
		{
			"children":[
				22
			],
			"name":"Forearm.L",
			"rotation":[
				0.28914979100227356,
				-0.004575738683342934,
				-0.01766606792807579,
				0.9571099281311035
			],
			"scale":[
				0.9999999403953552,
				1,
				0.9999999403953552
			],
			"translation":[
				1.6067801311692165e-08,
				0.5422754883766174,
				8.381903171539307e-09
			]
		},
		{
			"children":[
				23
			],
			"name":"UpperArm.L",
			"rotation":[
				0.09067310392856598,
				0.07756651192903519,
				-0.5237548351287842,
				0.8434706926345825
			],
			"scale":[
				0.9999999403953552,
				0.9999998807907104,
				1
			],
			"translation":[
				-4.6323730629183046e-08,
				0.45526397228240967,
				0
			]
		},
		{
			"children":[
				24
			],
			"name":"Shoulder.L",
			"rotation":[
				-0.07842136919498444,
				0.0995350256562233,
				-0.7791591882705688,
				0.6138842701911926
			],
			"scale":[
				1,
				0.9999999403953552,
				1
			],
			"translation":[
				0,
				0.4670755863189697,
				0
			]
		},
		{
			"name":"Hand.R",
			"rotation":[
				-0.054047632962465286,
				0.10546747595071793,
				0.19708578288555145,
				0.9731971621513367
			],
			"scale":[
				1,
				1,
				0.9999999403953552
			],
			"translation":[
				3.882888677253504e-08,
				0.6996235251426697,
				1.862645149230957e-09
			]
		},
		{
			"children":[
				26
			],
			"name":"Forearm.R",
			"rotation":[
				0.28914979100227356,
				0.004575738683342934,
				0.01766606792807579,
				0.9571099281311035
			],
			"scale":[
				0.9999999403953552,
				1,
				0.9999999403953552
			],
			"translation":[
				-1.6067801311692165e-08,
				0.5422754883766174,
				8.381903171539307e-09
			]
		},
		{
			"children":[
				27
			],
			"name":"UpperArm.R",
			"rotation":[
				0.09067310392856598,
				-0.07756651192903519,
				0.5237548351287842,
				0.8434706926345825
			],
			"scale":[
				0.9999999403953552,
				0.9999998807907104,
				1
			],
			"translation":[
				4.6323730629183046e-08,
				0.45526397228240967,
				0
			]
		},
		{
			"children":[
				28
			],
			"name":"Shoulder.R",
			"rotation":[
				-0.07842136919498444,
				-0.0995350256562233,
				0.7791591882705688,
				0.6138842701911926
			],
			"scale":[
				1,
				0.9999999403953552,
				1
			],
			"translation":[
				0,
				0.4670755863189697,
				0
			]
		},
		{
			"children":[
				21,
				25,
				29
			],
			"name":"Spine.002",
			"translation":[
				0,
				0.48563480377197266,
				0
			]
		},
		{
			"children":[
				30
			],
			"name":"Spine.001",
			"translation":[
				0,
				0.438767671585083,
				0
			]
		},
		{
			"name":"Foot.L",
			"rotation":[
				0.2960825264453888,
				0.135324627161026,
				-0.526248037815094,
				0.7855478525161743
			],
			"scale":[
				0.9999999403953552,
				0.9999999403953552,
				1.0000001192092896
			],
			"translation":[
				4.0046870708465576e-08,
				0.8307936787605286,
				-1.1200502747499286e-09
			]
		},
		{
			"children":[
				32
			],
			"name":"Calf.L",
			"rotation":[
				0.022578606382012367,
				-0.0028888669330626726,
				0.0342688113451004,
				0.9991534352302551
			],
			"scale":[
				1,
				1,
				0.9999999403953552
			],
			"translation":[
				7.242348942781973e-09,
				0.9640383124351501,
				-2.6077021431092362e-08
			]
		},
		{
			"children":[
				33
			],
			"name":"Thigh.L",
			"rotation":[
				-0.9018375873565674,
				-0.09685812145471573,
				0.08364163339138031,
				0.4126882255077362
			],
			"scale":[
				1,
				1,
				0.9999998807907104
			],
			"translation":[
				0,
				0.29621073603630066,
				-1.0095320135405927e-08
			]
		},
		{
			"children":[
				34
			],
			"name":"Pelvis.L",
			"rotation":[
				0.21390901505947113,
				0.295405775308609,
				0.5494075417518616,
				0.7517511248588562
			],
			"scale":[
				0.9999997615814209,
				0.9999997615814209,
				0.9999998807907104
			],
			"translation":[
				-1.8044812978644086e-15,
				8.935106166063633e-08,
				-1.5264848940432785e-08
			]
		},
		{
			"name":"Foot.R",
			"rotation":[
				0.2960825562477112,
				-0.1353246420621872,
				0.5262479782104492,
				0.7855478525161743
			],
			"scale":[
				1,
				1,
				0.9999999403953552
			],
			"translation":[
				-4.0046870708465576e-08,
				0.8307936191558838,
				-1.7763509774226804e-08
			]
		},
		{
			"children":[
				36
			],
			"name":"Calf.R",
			"rotation":[
				0.022578591480851173,
				0.002888825722038746,
				-0.034268833696842194,
				0.9991533756256104
			],
			"translation":[
				2.3926665093654265e-09,
				0.9640383124351501,
				1.862644793959589e-08
			]
		},
		{
			"children":[
				37
			],
			"name":"Thigh.R",
			"rotation":[
				-0.9018375873565674,
				0.0968582034111023,
				-0.08364161849021912,
				0.4126882553100586
			],
			"scale":[
				1,
				1,
				0.9999998211860657
			],
			"translation":[
				1.862645149230957e-09,
				0.29621073603630066,
				-4.760533300895986e-09
			]
		},
		{
			"children":[
				38
			],
			"name":"Pelvis.R",
			"rotation":[
				0.21390889585018158,
				-0.29540568590164185,
				-0.5494076013565063,
				0.751751184463501
			],
			"scale":[
				0.9999999403953552,
				0.9999998211860657,
				0.9999999403953552
			],
			"translation":[
				-1.8044812978644086e-15,
				8.935106166063633e-08,
				-1.5264848940432785e-08
			]
		},
		{
			"children":[
				35,
				39
			],
			"name":"Pelvis",
			"rotation":[
				5.327646590558288e-08,
				0.70854252576828,
				0.7056681513786316,
				5.349347986793873e-08
			],
			"scale":[
				1,
				1.0000001192092896,
				1
			]
		},
		{
			"children":[
				31,
				40
			],
			"name":"Spine",
			"translation":[
				0,
				-0.15020716190338135,
				0
			]
		},
		{
			"children":[
				41
			],
			"name":"Armature"
		}
	],
	"cameras":[
		{
			"name":"Camera",
			"perspective":{
				"aspectRatio":1.7777777777777777,
				"yfov":0.39959652046304894,
				"zfar":100,
				"znear":0.10000000149011612
			},
			"type":"perspective"
		}
	],
	"materials":[
		{
			"doubleSided":true,
			"name":"Material",
			"pbrMetallicRoughness":{
				"baseColorFactor":[
					0.800000011920929,
					0.800000011920929,
					0.800000011920929,
					1
				],
				"metallicFactor":0,
				"roughnessFactor":0.4000000059604645
			}
		}
	],
	"meshes":[
		{
			"name":"Cube",
			"primitives":[
				{
					"attributes":{
						"POSITION":0,
						"NORMAL":1,
						"TEXCOORD_0":2,
						"TANGENT":3
					},
					"indices":4,
					"material":0
				}
			]
		},
		{
			"name":"Cube.001",
			"primitives":[
				{
					"attributes":{
						"POSITION":5,
						"NORMAL":6,
						"TEXCOORD_0":7,
						"TANGENT":8
					},
					"indices":9
				}
			]
		},
		{
			"name":"Cube.002",
			"primitives":[
				{
					"attributes":{
						"POSITION":10,
						"NORMAL":11,
						"TEXCOORD_0":12,
						"TANGENT":13
					},
					"indices":9
				}
			]
		},
		{
			"name":"Cube.003",
			"primitives":[
				{
					"attributes":{
						"POSITION":14,
						"NORMAL":15,
						"TEXCOORD_0":16,
						"TANGENT":17
					},
					"indices":9
				}
			]
		},
		{
			"name":"Cube.004",
			"primitives":[
				{
					"attributes":{
						"POSITION":18,
						"NORMAL":19,
						"TEXCOORD_0":20,
						"TANGENT":21
					},
					"indices":9
				}
			]
		},
		{
			"name":"Cube.008",
			"primitives":[
				{
					"attributes":{
						"POSITION":22,
						"NORMAL":23,
						"TEXCOORD_0":24,
						"TANGENT":25
					},
					"indices":9
				}
			]
		},
		{
			"name":"Cube.009",
			"primitives":[
				{
					"attributes":{
						"POSITION":26,
						"NORMAL":27,
						"TEXCOORD_0":28,
						"TANGENT":29
					},
					"indices":9
				}
			]
		},
		{
			"name":"Cube.010",
			"primitives":[
				{
					"attributes":{
						"POSITION":30,
						"NORMAL":31,
						"TEXCOORD_0":32,
						"TANGENT":33
					},
					"indices":9
				}
			]
		},
		{
			"name":"Cube.005",
			"primitives":[
				{
					"attributes":{
						"POSITION":34,
						"NORMAL":35,
						"TEXCOORD_0":36,
						"TANGENT":37
					},
					"indices":9
				}
			]
		},
		{
			"name":"Cube.006",
			"primitives":[
				{
					"attributes":{
						"POSITION":38,
						"NORMAL":39,
						"TEXCOORD_0":40,
						"TANGENT":41
					},
					"indices":42
				}
			]
		},
		{
			"name":"Cube.007",
			"primitives":[
				{
					"attributes":{
						"POSITION":43,
						"NORMAL":44,
						"TEXCOORD_0":45,
						"TANGENT":46
					},
					"indices":9
				}
			]
		},
		{
			"name":"Cube.011",
			"primitives":[
				{
					"attributes":{
						"POSITION":47,
						"NORMAL":48,
						"TEXCOORD_0":49,
						"TANGENT":50
					},
					"indices":9
				}
			]
		},
		{
			"name":"Cube.012",
			"primitives":[
				{
					"attributes":{
						"POSITION":51,
						"NORMAL":52,
						"TEXCOORD_0":53,
						"TANGENT":54
					},
					"indices":9
				}
			]
		},
		{
			"name":"Cube.013",
			"primitives":[
				{
					"attributes":{
						"POSITION":55,
						"NORMAL":56,
						"TEXCOORD_0":57,
						"TANGENT":58
					},
					"indices":9
				}
			]
		},
		{
			"name":"Cube.014",
			"primitives":[
				{
					"attributes":{
						"POSITION":59,
						"NORMAL":60,
						"TEXCOORD_0":61,
						"TANGENT":62
					},
					"indices":9
				}
			]
		},
		{
			"name":"Cube.015",
			"primitives":[
				{
					"attributes":{
						"POSITION":63,
						"NORMAL":64,
						"TEXCOORD_0":65,
						"TANGENT":66
					},
					"indices":42
				}
			]
		}
	],
	"skins":[
		{
			"inverseBindMatrices":67,
			"joints":[
				41,
				31,
				30,
				21,
				20,
				25,
				24,
				23,
				22,
				29,
				28,
				27,
				26,
				40,
				35,
				34,
				33,
				32,
				39,
				38,
				37,
				36
			],
			"name":"Armature"
		}
	],
	"accessors":[
		{
			"bufferView":0,
			"componentType":5126,
			"count":24,
			"max":[
				1,
				1,
				1
			],
			"min":[
				-1,
				-1,
				-1
			],
			"type":"VEC3"
		},
		{
			"bufferView":1,
			"componentType":5126,
			"count":24,
			"type":"VEC3"
		},
		{
			"bufferView":2,
			"componentType":5126,
			"count":24,
			"type":"VEC2"
		},
		{
			"bufferView":3,
			"componentType":5126,
			"count":24,
			"type":"VEC4"
		},
		{
			"bufferView":4,
			"componentType":5123,
			"count":36,
			"type":"SCALAR"
		},
		{
			"bufferView":5,
			"componentType":5126,
			"count":96,
			"max":[
				0.8395062685012817,
				0.8395062685012817,
				0.8395062685012817
			],
			"min":[
				-0.8395062685012817,
				-0.8395062685012817,
				-0.8395062685012817
			],
			"type":"VEC3"
		},
		{
			"bufferView":6,
			"componentType":5126,
			"count":96,
			"type":"VEC3"
		},
		{
			"bufferView":7,
			"componentType":5126,
			"count":96,
			"type":"VEC2"
		},
		{
			"bufferView":8,
			"componentType":5126,
			"count":96,
			"type":"VEC4"
		},
		{
			"bufferView":9,
			"componentType":5123,
			"count":144,
			"type":"SCALAR"
		},
		{
			"bufferView":10,
			"componentType":5126,
			"count":96,
			"max":[
				0.8395062685012817,
				0.8395062685012817,
				0.8395062685012817
			],
			"min":[
				-0.8395062685012817,
				-0.8395062685012817,
				-0.8395062685012817
			],
			"type":"VEC3"
		},
		{
			"bufferView":11,
			"componentType":5126,
			"count":96,
			"type":"VEC3"
		},
		{
			"bufferView":12,
			"componentType":5126,
			"count":96,
			"type":"VEC2"
		},
		{
			"bufferView":13,
			"componentType":5126,
			"count":96,
			"type":"VEC4"
		},
		{
			"bufferView":14,
			"componentType":5126,
			"count":96,
			"max":[
				0.8395062685012817,
				0.8395062685012817,
				0.8395062685012817
			],
			"min":[
				-0.8395062685012817,
				-0.8395062685012817,
				-0.8395062685012817
			],
			"type":"VEC3"
		},
		{
			"bufferView":15,
			"componentType":5126,
			"count":96,
			"type":"VEC3"
		},
		{
			"bufferView":16,
			"componentType":5126,
			"count":96,
			"type":"VEC2"
		},
		{
			"bufferView":17,
			"componentType":5126,
			"count":96,
			"type":"VEC4"
		},
		{
			"bufferView":18,
			"componentType":5126,
			"count":96,
			"max":[
				0.8395062685012817,
				0.8395062685012817,
				0.8395062685012817
			],
			"min":[
				-0.8395062685012817,
				-0.8395062685012817,
				-0.8395062685012817
			],
			"type":"VEC3"
		},
		{
			"bufferView":19,
			"componentType":5126,
			"count":96,
			"type":"VEC3"
		},
		{
			"bufferView":20,
			"componentType":5126,
			"count":96,
			"type":"VEC2"
		},
		{
			"bufferView":21,
			"componentType":5126,
			"count":96,
			"type":"VEC4"
		},
		{
			"bufferView":22,
			"componentType":5126,
			"count":96,
			"max":[
				0.8395062685012817,
				0.8395062685012817,
				0.8395062685012817
			],
			"min":[
				-0.8395062685012817,
				-0.8395062685012817,
				-0.8395062685012817
			],
			"type":"VEC3"
		},
		{
			"bufferView":23,
			"componentType":5126,
			"count":96,
			"type":"VEC3"
		},
		{
			"bufferView":24,
			"componentType":5126,
			"count":96,
			"type":"VEC2"
		},
		{
			"bufferView":25,
			"componentType":5126,
			"count":96,
			"type":"VEC4"
		},
		{
			"bufferView":26,
			"componentType":5126,
			"count":96,
			"max":[
				0.8395062685012817,
				0.8395062685012817,
				0.8395062685012817
			],
			"min":[
				-0.8395062685012817,
				-0.8395062685012817,
				-0.8395062685012817
			],
			"type":"VEC3"
		},
		{
			"bufferView":27,
			"componentType":5126,
			"count":96,
			"type":"VEC3"
		},
		{
			"bufferView":28,
			"componentType":5126,
			"count":96,
			"type":"VEC2"
		},
		{
			"bufferView":29,
			"componentType":5126,
			"count":96,
			"type":"VEC4"
		},
		{
			"bufferView":30,
			"componentType":5126,
			"count":96,
			"max":[
				0.8395062685012817,
				0.8395062685012817,
				0.8395062685012817
			],
			"min":[
				-0.8395062685012817,
				-0.8395062685012817,
				-0.8395062685012817
			],
			"type":"VEC3"
		},
		{
			"bufferView":31,
			"componentType":5126,
			"count":96,
			"type":"VEC3"
		},
		{
			"bufferView":32,
			"componentType":5126,
			"count":96,
			"type":"VEC2"
		},
		{
			"bufferView":33,
			"componentType":5126,
			"count":96,
			"type":"VEC4"
		},
		{
			"bufferView":34,
			"componentType":5126,
			"count":96,
			"max":[
				0.8395062685012817,
				0.8395062685012817,
				0.8395062685012817
			],
			"min":[
				-0.8395062685012817,
				-0.8395062685012817,
				-0.8395062685012817
			],
			"type":"VEC3"
		},
		{
			"bufferView":35,
			"componentType":5126,
			"count":96,
			"type":"VEC3"
		},
		{
			"bufferView":36,
			"componentType":5126,
			"count":96,
			"type":"VEC2"
		},
		{
			"bufferView":37,
			"componentType":5126,
			"count":96,
			"type":"VEC4"
		},
		{
			"bufferView":38,
			"componentType":5126,
			"count":96,
			"max":[
				0.8395062685012817,
				3.1539905071258545,
				1.4902184009552002
			],
			"min":[
				-0.8395062685012817,
				-1.4542855024337769,
				-0.8504381775856018
			],
			"type":"VEC3"
		},
		{
			"bufferView":39,
			"componentType":5126,
			"count":96,
			"type":"VEC3"
		},
		{
			"bufferView":40,
			"componentType":5126,
			"count":96,
			"type":"VEC2"
		},
		{
			"bufferView":41,
			"componentType":5126,
			"count":96,
			"type":"VEC4"
		},
		{
			"bufferView":42,
			"componentType":5123,
			"count":144,
			"type":"SCALAR"
		},
		{
			"bufferView":43,
			"componentType":5126,
			"count":96,
			"max":[
				0.8395062685012817,
				0.8395062685012817,
				0.8395062685012817
			],
			"min":[
				-0.8395062685012817,
				-0.8395062685012817,
				-0.8395062685012817
			],
			"type":"VEC3"
		},
		{
			"bufferView":44,
			"componentType":5126,
			"count":96,
			"type":"VEC3"
		},
		{
			"bufferView":45,
			"componentType":5126,
			"count":96,
			"type":"VEC2"
		},
		{
			"bufferView":46,
			"componentType":5126,
			"count":96,
			"type":"VEC4"
		},
		{
			"bufferView":47,
			"componentType":5126,
			"count":96,
			"max":[
				0.8395062685012817,
				0.8395062685012817,
				0.8395062685012817
			],
			"min":[
				-0.8395062685012817,
				-0.8395062685012817,
				-0.8395062685012817
			],
			"type":"VEC3"
		},
		{
			"bufferView":48,
			"componentType":5126,
			"count":96,
			"type":"VEC3"
		},
		{
			"bufferView":49,
			"componentType":5126,
			"count":96,
			"type":"VEC2"
		},
		{
			"bufferView":50,
			"componentType":5126,
			"count":96,
			"type":"VEC4"
		},
		{
			"bufferView":51,
			"componentType":5126,
			"count":96,
			"max":[
				0.8395062685012817,
				0.8395062685012817,
				0.8395062685012817
			],
			"min":[
				-0.8395062685012817,
				-0.8395062685012817,
				-0.8395062685012817
			],
			"type":"VEC3"
		},
		{
			"bufferView":52,
			"componentType":5126,
			"count":96,
			"type":"VEC3"
		},
		{
			"bufferView":53,
			"componentType":5126,
			"count":96,
			"type":"VEC2"
		},
		{
			"bufferView":54,
			"componentType":5126,
			"count":96,
			"type":"VEC4"
		},
		{
			"bufferView":55,
			"componentType":5126,
			"count":96,
			"max":[
				0.8395062685012817,
				0.8395062685012817,
				0.8395062685012817
			],
			"min":[
				-0.8395062685012817,
				-0.8395062685012817,
				-0.8395062685012817
			],
			"type":"VEC3"
		},
		{
			"bufferView":56,
			"componentType":5126,
			"count":96,
			"type":"VEC3"
		},
		{
			"bufferView":57,
			"componentType":5126,
			"count":96,
			"type":"VEC2"
		},
		{
			"bufferView":58,
			"componentType":5126,
			"count":96,
			"type":"VEC4"
		},
		{
			"bufferView":59,
			"componentType":5126,
			"count":96,
			"max":[
				0.8395062685012817,
				0.8395062685012817,
				0.8395062685012817
			],
			"min":[
				-0.8395062685012817,
				-0.8395062685012817,
				-0.8395062685012817
			],
			"type":"VEC3"
		},
		{
			"bufferView":60,
			"componentType":5126,
			"count":96,
			"type":"VEC3"
		},
		{
			"bufferView":61,
			"componentType":5126,
			"count":96,
			"type":"VEC2"
		},
		{
			"bufferView":62,
			"componentType":5126,
			"count":96,
			"type":"VEC4"
		},
		{
			"bufferView":63,
			"componentType":5126,
			"count":96,
			"max":[
				0.8395062685012817,
				3.1539905071258545,
				1.4902184009552002
			],
			"min":[
				-0.8395062685012817,
				-1.4542855024337769,
				-0.8504381775856018
			],
			"type":"VEC3"
		},
		{
			"bufferView":64,
			"componentType":5126,
			"count":96,
			"type":"VEC3"
		},
		{
			"bufferView":65,
			"componentType":5126,
			"count":96,
			"type":"VEC2"
		},
		{
			"bufferView":66,
			"componentType":5126,
			"count":96,
			"type":"VEC4"
		},
		{
			"bufferView":67,
			"componentType":5126,
			"count":22,
			"type":"MAT4"
		}
	],
	"bufferViews":[
		{
			"buffer":0,
			"byteLength":288,
			"byteOffset":0,
			"target":34962
		},
		{
			"buffer":0,
			"byteLength":288,
			"byteOffset":288,
			"target":34962
		},
		{
			"buffer":0,
			"byteLength":192,
			"byteOffset":576,
			"target":34962
		},
		{
			"buffer":0,
			"byteLength":384,
			"byteOffset":768,
			"target":34962
		},
		{
			"buffer":0,
			"byteLength":72,
			"byteOffset":1152,
			"target":34963
		},
		{
			"buffer":0,
			"byteLength":1152,
			"byteOffset":1224,
			"target":34962
		},
		{
			"buffer":0,
			"byteLength":1152,
			"byteOffset":2376,
			"target":34962
		},
		{
			"buffer":0,
			"byteLength":768,
			"byteOffset":3528,
			"target":34962
		},
		{
			"buffer":0,
			"byteLength":1536,
			"byteOffset":4296,
			"target":34962
		},
		{
			"buffer":0,
			"byteLength":288,
			"byteOffset":5832,
			"target":34963
		},
		{
			"buffer":0,
			"byteLength":1152,
			"byteOffset":6120,
			"target":34962
		},
		{
			"buffer":0,
			"byteLength":1152,
			"byteOffset":7272,
			"target":34962
		},
		{
			"buffer":0,
			"byteLength":768,
			"byteOffset":8424,
			"target":34962
		},
		{
			"buffer":0,
			"byteLength":1536,
			"byteOffset":9192,
			"target":34962
		},
		{
			"buffer":0,
			"byteLength":1152,
			"byteOffset":10728,
			"target":34962
		},
		{
			"buffer":0,
			"byteLength":1152,
			"byteOffset":11880,
			"target":34962
		},
		{
			"buffer":0,
			"byteLength":768,
			"byteOffset":13032,
			"target":34962
		},
		{
			"buffer":0,
			"byteLength":1536,
			"byteOffset":13800,
			"target":34962
		},
		{
			"buffer":0,
			"byteLength":1152,
			"byteOffset":15336,
			"target":34962
		},
		{
			"buffer":0,
			"byteLength":1152,
			"byteOffset":16488,
			"target":34962
		},
		{
			"buffer":0,
			"byteLength":768,
			"byteOffset":17640,
			"target":34962
		},
		{
			"buffer":0,
			"byteLength":1536,
			"byteOffset":18408,
			"target":34962
		},
		{
			"buffer":0,
			"byteLength":1152,
			"byteOffset":19944,
			"target":34962
		},
		{
			"buffer":0,
			"byteLength":1152,
			"byteOffset":21096,
			"target":34962
		},
		{
			"buffer":0,
			"byteLength":768,
			"byteOffset":22248,
			"target":34962
		},
		{
			"buffer":0,
			"byteLength":1536,
			"byteOffset":23016,
			"target":34962
		},
		{
			"buffer":0,
			"byteLength":1152,
			"byteOffset":24552,
			"target":34962
		},
		{
			"buffer":0,
			"byteLength":1152,
			"byteOffset":25704,
			"target":34962
		},
		{
			"buffer":0,
			"byteLength":768,
			"byteOffset":26856,
			"target":34962
		},
		{
			"buffer":0,
			"byteLength":1536,
			"byteOffset":27624,
			"target":34962
		},
		{
			"buffer":0,
			"byteLength":1152,
			"byteOffset":29160,
			"target":34962
		},
		{
			"buffer":0,
			"byteLength":1152,
			"byteOffset":30312,
			"target":34962
		},
		{
			"buffer":0,
			"byteLength":768,
			"byteOffset":31464,
			"target":34962
		},
		{
			"buffer":0,
			"byteLength":1536,
			"byteOffset":32232,
			"target":34962
		},
		{
			"buffer":0,
			"byteLength":1152,
			"byteOffset":33768,
			"target":34962
		},
		{
			"buffer":0,
			"byteLength":1152,
			"byteOffset":34920,
			"target":34962
		},
		{
			"buffer":0,
			"byteLength":768,
			"byteOffset":36072,
			"target":34962
		},
		{
			"buffer":0,
			"byteLength":1536,
			"byteOffset":36840,
			"target":34962
		},
		{
			"buffer":0,
			"byteLength":1152,
			"byteOffset":38376,
			"target":34962
		},
		{
			"buffer":0,
			"byteLength":1152,
			"byteOffset":39528,
			"target":34962
		},
		{
			"buffer":0,
			"byteLength":768,
			"byteOffset":40680,
			"target":34962
		},
		{
			"buffer":0,
			"byteLength":1536,
			"byteOffset":41448,
			"target":34962
		},
		{
			"buffer":0,
			"byteLength":288,
			"byteOffset":42984,
			"target":34963
		},
		{
			"buffer":0,
			"byteLength":1152,
			"byteOffset":43272,
			"target":34962
		},
		{
			"buffer":0,
			"byteLength":1152,
			"byteOffset":44424,
			"target":34962
		},
		{
			"buffer":0,
			"byteLength":768,
			"byteOffset":45576,
			"target":34962
		},
		{
			"buffer":0,
			"byteLength":1536,
			"byteOffset":46344,
			"target":34962
		},
		{
			"buffer":0,
			"byteLength":1152,
			"byteOffset":47880,
			"target":34962
		},
		{
			"buffer":0,
			"byteLength":1152,
			"byteOffset":49032,
			"target":34962
		},
		{
			"buffer":0,
			"byteLength":768,
			"byteOffset":50184,
			"target":34962
		},
		{
			"buffer":0,
			"byteLength":1536,
			"byteOffset":50952,
			"target":34962
		},
		{
			"buffer":0,
			"byteLength":1152,
			"byteOffset":52488,
			"target":34962
		},
		{
			"buffer":0,
			"byteLength":1152,
			"byteOffset":53640,
			"target":34962
		},
		{
			"buffer":0,
			"byteLength":768,
			"byteOffset":54792,
			"target":34962
		},
		{
			"buffer":0,
			"byteLength":1536,
			"byteOffset":55560,
			"target":34962
		},
		{
			"buffer":0,
			"byteLength":1152,
			"byteOffset":57096,
			"target":34962
		},
		{
			"buffer":0,
			"byteLength":1152,
			"byteOffset":58248,
			"target":34962
		},
		{
			"buffer":0,
			"byteLength":768,
			"byteOffset":59400,
			"target":34962
		},
		{
			"buffer":0,
			"byteLength":1536,
			"byteOffset":60168,
			"target":34962
		},
		{
			"buffer":0,
			"byteLength":1152,
			"byteOffset":61704,
			"target":34962
		},
		{
			"buffer":0,
			"byteLength":1152,
			"byteOffset":62856,
			"target":34962
		},
		{
			"buffer":0,
			"byteLength":768,
			"byteOffset":64008,
			"target":34962
		},
		{
			"buffer":0,
			"byteLength":1536,
			"byteOffset":64776,
			"target":34962
		},
		{
			"buffer":0,
			"byteLength":1152,
			"byteOffset":66312,
			"target":34962
		},
		{
			"buffer":0,
			"byteLength":1152,
			"byteOffset":67464,
			"target":34962
		},
		{
			"buffer":0,
			"byteLength":768,
			"byteOffset":68616,
			"target":34962
		},
		{
			"buffer":0,
			"byteLength":1536,
			"byteOffset":69384,
			"target":34962
		},
		{
			"buffer":0,
			"byteLength":1408,
			"byteOffset":70920
		}
	],
	"buffers":[
		{
			"byteLength":72328,
			"uri":"maledummy001-724ec589af9073ef4e8e0f9472581a39.bin"
		}
	]
}
