{
  "accessors": [
    {
      "bufferView": 3,
      "componentType": 5126,
      "count": 24,
      "max": [
        1.0,
        1.0000001192092896,
        1.0
      ],
      "min": [
        -1.0,
        -0.9999999403953552,
        -1.0
      ],
      "type": "VEC3"
    },
    {
      "bufferView": 3,
      "byteOffset": 288,
      "componentType": 5126,
      "count": 24,
      "max": [
        1.0,
        1.0,
        1.0
      ],
      "min": [
        -1.0,
        -1.0,
        -1.0
      ],
      "type": "VEC3"
    },
    {
      "bufferView": 2,
      "componentType": 5126,
      "count": 24,
      "max": [
        0.96875,
        0.875
      ],
      "min": [
        0.2812499701976776,
        0.0
      ],
      "type": "VEC2"
    },
    {
      "bufferView": 1,
      "componentType": 5125,
      "count": 36,
      "type": "SCALAR"
    },
    {
      "bufferView": 3,
      "byteOffset": 576,
      "componentType": 5126,
      "count": 24,
      "max": [
        357.0,
        296.2500305175781,
        89.0
      ],
      "min": [
        119.0,
        138.25001525878906,
        -89.0
      ],
      "type": "VEC3"
    },
    {
      "bufferView": 3,
      "byteOffset": 864,
      "componentType": 5126,
      "count": 24,
      "max": [
        1.0,
        1.0,
        1.0
      ],
      "min": [
        -1.0,
        -1.0,
        -1.0
      ],
      "type": "VEC3"
    },
    {
      "bufferView": 2,
      "byteOffset": 192,
      "componentType": 5126,
      "count": 24,
      "max": [
        0.984375,
        1.25
      ],
      "min": [
        0.375,
        0.75
      ],
      "type": "VEC2"
    },
    {
      "bufferView": 1,
      "byteOffset": 144,
      "componentType": 5125,
      "count": 36,
      "type": "SCALAR"
    },
    {
      "bufferView": 3,
      "byteOffset": 1152,
      "componentType": 5126,
      "count": 24,
      "max": [
        -357.0,
        9.750001907348633,
        19.00000762939453
      ],
      "min": [
        -595.0,
        -68.25003051757813,
        -19.00000762939453
      ],
      "type": "VEC3"
    },
    {
      "bufferView": 3,
      "byteOffset": 1440,
      "componentType": 5126,
      "count": 24,
      "max": [
        1.0,
        0.9999999403953552,
        1.0
      ],
      "min": [
        -1.0,
        -0.9999999403953552,
        -1.0
      ],
      "type": "VEC3"
    },
    {
      "bufferView": 2,
      "byteOffset": 384,
      "componentType": 5126,
      "count": 24,
      "max": [
        0.4375,
        1.0
      ],
      "min": [
        0.0,
        0.5625
      ],
      "type": "VEC2"
    },
    {
      "bufferView": 1,
      "byteOffset": 288,
      "componentType": 5125,
      "count": 36,
      "type": "SCALAR"
    },
    {
      "bufferView": 3,
      "byteOffset": 1728,
      "componentType": 5126,
      "count": 24,
      "max": [
        -4056.000732421875,
        -1308.0001220703125,
        275.9999694824219
      ],
      "min": [
        -4394.00048828125,
        -1526.0001220703125,
        137.99998474121094
      ],
      "type": "VEC3"
    },
    {
      "bufferView": 3,
      "byteOffset": 2016,
      "componentType": 5126,
      "count": 24,
      "max": [
        1.0,
        1.0,
        1.0
      ],
      "min": [
        -1.0,
        -1.0,
        -1.0
      ],
      "type": "VEC3"
    },
    {
      "bufferView": 2,
      "byteOffset": 576,
      "componentType": 5126,
      "count": 24,
      "max": [
        0.40625,
        1.0
      ],
      "min": [
        0.34375,
        0.875
      ],
      "type": "VEC2"
    },
    {
      "bufferView": 1,
      "byteOffset": 432,
      "componentType": 5125,
      "count": 36,
      "type": "SCALAR"
    },
    {
      "bufferView": 3,
      "byteOffset": 2304,
      "componentType": 5126,
      "count": 24,
      "max": [
        -4056.000732421875,
        -1308.0001220703125,
        -137.99998474121094
      ],
      "min": [
        -4394.00048828125,
        -1526.0001220703125,
        -275.9999694824219
      ],
      "type": "VEC3"
    },
    {
      "bufferView": 3,
      "byteOffset": 2592,
      "componentType": 5126,
      "count": 24,
      "max": [
        1.0,
        1.0,
        1.0
      ],
      "min": [
        -1.0,
        -1.0,
        -1.0
      ],
      "type": "VEC3"
    },
    {
      "bufferView": 2,
      "byteOffset": 768,
      "componentType": 5126,
      "count": 24,
      "max": [
        0.40625,
        1.0
      ],
      "min": [
        0.34375,
        0.875
      ],
      "type": "VEC2"
    },
    {
      "bufferView": 1,
      "byteOffset": 576,
      "componentType": 5125,
      "count": 36,
      "type": "SCALAR"
    },
    {
      "bufferView": 3,
      "byteOffset": 2880,
      "componentType": 5126,
      "count": 24,
      "max": [
        -347.5000305175781,
        513.5001220703125,
        7.000004768371582
      ],
      "min": [
        -625.5000610351563,
        355.5000915527344,
        -35.0000114440918
      ],
      "type": "VEC3"
    },
    {
      "bufferView": 3,
      "byteOffset": 3168,
      "componentType": 5126,
      "count": 24,
      "max": [
        1.0,
        1.0,
        1.0
      ],
      "min": [
        -1.0,
        -1.0,
        -1.0
      ],
      "type": "VEC3"
    },
    {
      "bufferView": 2,
      "byteOffset": 960,
      "componentType": 5126,
      "count": 24,
      "max": [
        0.25,
        0.5
      ],
      "min": [
        0.0,
        -2.9802322387695313e-08
      ],
      "type": "VEC2"
    },
    {
      "bufferView": 1,
      "byteOffset": 720,
      "componentType": 5125,
      "count": 36,
      "type": "SCALAR"
    },
    {
      "bufferView": 3,
      "byteOffset": 3456,
      "componentType": 5126,
      "count": 24,
      "max": [
        -347.5000305175781,
        513.5001220703125,
        35.0000114440918
      ],
      "min": [
        -625.5000610351563,
        355.5000915527344,
        -7.000004768371582
      ],
      "type": "VEC3"
    },
    {
      "bufferView": 3,
      "byteOffset": 3744,
      "componentType": 5126,
      "count": 24,
      "max": [
        1.0,
        1.0,
        1.0
      ],
      "min": [
        -1.0,
        -1.0,
        -1.0
      ],
      "type": "VEC3"
    },
    {
      "bufferView": 2,
      "byteOffset": 1152,
      "componentType": 5126,
      "count": 24,
      "max": [
        0.25,
        0.5
      ],
      "min": [
        0.0,
        -2.9802322387695313e-08
      ],
      "type": "VEC2"
    },
    {
      "bufferView": 1,
      "byteOffset": 864,
      "componentType": 5125,
      "count": 36,
      "type": "SCALAR"
    },
    {
      "bufferView": 3,
      "byteOffset": 4032,
      "componentType": 5126,
      "count": 24,
      "max": [
        625.5000610351563,
        513.5001220703125,
        35.0000114440918
      ],
      "min": [
        347.5000305175781,
        355.5000915527344,
        -7.000004768371582
      ],
      "type": "VEC3"
    },
    {
      "bufferView": 3,
      "byteOffset": 4320,
      "componentType": 5126,
      "count": 24,
      "max": [
        1.0,
        1.0,
        1.0
      ],
      "min": [
        -1.0,
        -1.0,
        -1.0
      ],
      "type": "VEC3"
    },
    {
      "bufferView": 2,
      "byteOffset": 1344,
      "componentType": 5126,
      "count": 24,
      "max": [
        0.25,
        0.5
      ],
      "min": [
        0.0,
        -2.9802322387695313e-08
      ],
      "type": "VEC2"
    },
    {
      "bufferView": 1,
      "byteOffset": 1008,
      "componentType": 5125,
      "count": 36,
      "type": "SCALAR"
    },
    {
      "bufferView": 3,
      "byteOffset": 4608,
      "componentType": 5126,
      "count": 24,
      "max": [
        625.5000610351563,
        513.5001220703125,
        7.000004768371582
      ],
      "min": [
        347.5000305175781,
        355.5000915527344,
        -35.0000114440918
      ],
      "type": "VEC3"
    },
    {
      "bufferView": 3,
      "byteOffset": 4896,
      "componentType": 5126,
      "count": 24,
      "max": [
        1.0,
        1.0,
        1.0
      ],
      "min": [
        -1.0,
        -1.0,
        -1.0
      ],
      "type": "VEC3"
    },
    {
      "bufferView": 2,
      "byteOffset": 1536,
      "componentType": 5126,
      "count": 24,
      "max": [
        0.25,
        0.5
      ],
      "min": [
        0.0,
        -2.9802322387695313e-08
      ],
      "type": "VEC2"
    },
    {
      "bufferView": 1,
      "byteOffset": 1152,
      "componentType": 5125,
      "count": 36,
      "type": "SCALAR"
    },
    {
      "bufferView": 5,
      "componentType": 5126,
      "count": 17,
      "max": [
        180.0,
        1.7999999523162842,
        1.1999993324279785,
        0.0,
        2.503395535313757e-07,
        120.00000762939453,
        1.2000000476837158,
        0.0,
        0.6666663885116577,
        5.96046660916727e-08,
        100.0,
        0.0,
        1.5768320560455322,
        1.6994118690490723,
        1.0,
        1.0
      ],
      "min": [
        -1.7971229553222656,
        -3.767673319998721e-07,
        -8.100048172617839e-15,
        0.0,
        -1.2000001668930054,
        -1.200000286102295,
        -9.29832495444316e-08,
        0.0,
        -8.663203487913052e-08,
        -1.0,
        -1.0,
        0.0,
        -0.2683279812335968,
        -1.7999998331069946,
        -0.8778469562530518,
        1.0
      ],
      "type": "MAT4"
    },
    {
      "bufferView": 0,
      "componentType": 5123,
      "count": 24,
      "type": "VEC4"
    },
    {
      "bufferView": 4,
      "componentType": 5126,
      "count": 24,
      "max": [
        1.0,
        0.0,
        0.0,
        0.0
      ],
      "min": [
        1.0,
        0.0,
        0.0,
        0.0
      ],
      "type": "VEC4"
    },
    {
      "bufferView": 0,
      "byteOffset": 192,
      "componentType": 5123,
      "count": 24,
      "type": "VEC4"
    },
    {
      "bufferView": 4,
      "byteOffset": 384,
      "componentType": 5126,
      "count": 24,
      "max": [
        1.0,
        0.031433045864105225,
        0.0,
        0.0
      ],
      "min": [
        0.9685669541358948,
        0.0,
        0.0,
        0.0
      ],
      "type": "VEC4"
    },
    {
      "bufferView": 0,
      "byteOffset": 384,
      "componentType": 5123,
      "count": 24,
      "type": "VEC4"
    },
    {
      "bufferView": 4,
      "byteOffset": 768,
      "componentType": 5126,
      "count": 24,
      "max": [
        1.0,
        0.0,
        0.0,
        0.0
      ],
      "min": [
        1.0,
        0.0,
        0.0,
        0.0
      ],
      "type": "VEC4"
    },
    {
      "bufferView": 0,
      "byteOffset": 576,
      "componentType": 5123,
      "count": 24,
      "type": "VEC4"
    },
    {
      "bufferView": 4,
      "byteOffset": 1152,
      "componentType": 5126,
      "count": 24,
      "max": [
        0.8464349508285522,
        0.17203623056411743,
        0.0,
        0.0
      ],
      "min": [
        0.8279637098312378,
        0.15356506407260895,
        0.0,
        0.0
      ],
      "type": "VEC4"
    },
    {
      "bufferView": 0,
      "byteOffset": 768,
      "componentType": 5123,
      "count": 24,
      "type": "VEC4"
    },
    {
      "bufferView": 4,
      "byteOffset": 1536,
      "componentType": 5126,
      "count": 24,
      "max": [
        1.0,
        0.0,
        0.0,
        0.0
      ],
      "min": [
        1.0,
        0.0,
        0.0,
        0.0
      ],
      "type": "VEC4"
    },
    {
      "bufferView": 0,
      "byteOffset": 960,
      "componentType": 5123,
      "count": 24,
      "type": "VEC4"
    },
    {
      "bufferView": 4,
      "byteOffset": 1920,
      "componentType": 5126,
      "count": 24,
      "max": [
        1.0,
        0.0,
        0.0,
        0.0
      ],
      "min": [
        1.0,
        0.0,
        0.0,
        0.0
      ],
      "type": "VEC4"
    },
    {
      "bufferView": 0,
      "byteOffset": 1152,
      "componentType": 5123,
      "count": 24,
      "type": "VEC4"
    },
    {
      "bufferView": 4,
      "byteOffset": 2304,
      "componentType": 5126,
      "count": 24,
      "max": [
        1.0,
        0.0,
        0.0,
        0.0
      ],
      "min": [
        1.0,
        0.0,
        0.0,
        0.0
      ],
      "type": "VEC4"
    },
    {
      "bufferView": 0,
      "byteOffset": 1344,
      "componentType": 5123,
      "count": 24,
      "type": "VEC4"
    },
    {
      "bufferView": 4,
      "byteOffset": 2688,
      "componentType": 5126,
      "count": 24,
      "max": [
        1.0,
        0.0,
        0.0,
        0.0
      ],
      "min": [
        1.0,
        0.0,
        0.0,
        0.0
      ],
      "type": "VEC4"
    },
    {
      "bufferView": 0,
      "byteOffset": 1536,
      "componentType": 5123,
      "count": 24,
      "type": "VEC4"
    },
    {
      "bufferView": 4,
      "byteOffset": 3072,
      "componentType": 5126,
      "count": 24,
      "max": [
        1.0,
        0.0,
        0.0,
        0.0
      ],
      "min": [
        1.0,
        0.0,
        0.0,
        0.0
      ],
      "type": "VEC4"
    }
  ],
  "asset": {
    "extras": {
      "author": "None (https://sketchfab.com/None_Yaroslav)",
      "license": "CC-BY-4.0 (http://creativecommons.org/licenses/by/4.0/)",
      "source": "https://sketchfab.com/3d-models/minecraft-cow-7bd4f1a25f2c479fac08d83b0aa7aa5a",
      "title": "Minecraft Cow"
    },
    "generator": "Sketchfab-12.66.0",
    "version": "2.0"
  },
  "bufferViews": [
    {
      "buffer": 0,
      "byteLength": 1728,
      "byteStride": 8,
      "name": "shortBufferViews",
      "target": 34962
    },
    {
      "buffer": 0,
      "byteLength": 1296,
      "byteOffset": 1728,
      "name": "floatBufferViews",
      "target": 34963
    },
    {
      "buffer": 0,
      "byteLength": 1728,
      "byteOffset": 3024,
      "byteStride": 8,
      "name": "floatBufferViews",
      "target": 34962
    },
    {
      "buffer": 0,
      "byteLength": 5184,
      "byteOffset": 4752,
      "byteStride": 12,
      "name": "floatBufferViews",
      "target": 34962
    },
    {
      "buffer": 0,
      "byteLength": 3456,
      "byteOffset": 9936,
      "byteStride": 16,
      "name": "floatBufferViews",
      "target": 34962
    },
    {
      "buffer": 0,
      "byteLength": 1088,
      "byteOffset": 13392,
      "name": "floatBufferViews"
    }
  ],
  "buffers": [
    {
      "byteLength": 14480,
      "uri": "scene.bin"
    }
  ],
  "images": [
    {
      "uri": "textures/material_baseColor.png"
    }
  ],
  "materials": [
    {
      "doubleSided": true,
      "name": "material",
      "pbrMetallicRoughness": {
        "baseColorTexture": {
          "index": 0
        },
        "metallicFactor": 0.0
      }
    }
  ],
  "meshes": [
    {
      "name": "Body_Cow_0",
      "primitives": [
        {
          "attributes": {
            "JOINTS_0": 37,
            "NORMAL": 1,
            "POSITION": 0,
            "TEXCOORD_0": 2,
            "WEIGHTS_0": 38
          },
          "indices": 3,
          "material": 0,
          "mode": 4
        }
      ]
    },
    {
      "name": "Udder_Cow_0",
      "primitives": [
        {
          "attributes": {
            "JOINTS_0": 39,
            "NORMAL": 5,
            "POSITION": 4,
            "TEXCOORD_0": 6,
            "WEIGHTS_0": 40
          },
          "indices": 7,
          "material": 0,
          "mode": 4
        }
      ]
    },
    {
      "name": "Head_Cow_0",
      "primitives": [
        {
          "attributes": {
            "JOINTS_0": 41,
            "NORMAL": 9,
            "POSITION": 8,
            "TEXCOORD_0": 10,
            "WEIGHTS_0": 42
          },
          "indices": 11,
          "material": 0,
          "mode": 4
        }
      ]
    },
    {
      "name": "HornL_Cow_0",
      "primitives": [
        {
          "attributes": {
            "JOINTS_0": 43,
            "NORMAL": 13,
            "POSITION": 12,
            "TEXCOORD_0": 14,
            "WEIGHTS_0": 44
          },
          "indices": 15,
          "material": 0,
          "mode": 4
        }
      ]
    },
    {
      "name": "HornR_Cow_0",
      "primitives": [
        {
          "attributes": {
            "JOINTS_0": 45,
            "NORMAL": 17,
            "POSITION": 16,
            "TEXCOORD_0": 18,
            "WEIGHTS_0": 46
          },
          "indices": 19,
          "material": 0,
          "mode": 4
        }
      ]
    },
    {
      "name": "LegFL_Cow_0",
      "primitives": [
        {
          "attributes": {
            "JOINTS_0": 47,
            "NORMAL": 21,
            "POSITION": 20,
            "TEXCOORD_0": 22,
            "WEIGHTS_0": 48
          },
          "indices": 23,
          "material": 0,
          "mode": 4
        }
      ]
    },
    {
      "name": "LegFR_Cow_0",
      "primitives": [
        {
          "attributes": {
            "JOINTS_0": 49,
            "NORMAL": 25,
            "POSITION": 24,
            "TEXCOORD_0": 26,
            "WEIGHTS_0": 50
          },
          "indices": 27,
          "material": 0,
          "mode": 4
        }
      ]
    },
    {
      "name": "LegBR_Cow_0",
      "primitives": [
        {
          "attributes": {
            "JOINTS_0": 51,
            "NORMAL": 29,
            "POSITION": 28,
            "TEXCOORD_0": 30,
            "WEIGHTS_0": 52
          },
          "indices": 31,
          "material": 0,
          "mode": 4
        }
      ]
    },
    {
      "name": "LegBL_Cow_0",
      "primitives": [
        {
          "attributes": {
            "JOINTS_0": 53,
            "NORMAL": 33,
            "POSITION": 32,
            "TEXCOORD_0": 34,
            "WEIGHTS_0": 54
          },
          "indices": 35,
          "material": 0,
          "mode": 4
        }
      ]
    }
  ],
  "nodes": [
    {
      "children": [
        1
      ],
      "matrix": [
        1.0,
        0.0,
        0.0,
        0.0,
        0.0,
        2.220446049250313e-16,
        -1.0,
        0.0,
        0.0,
        1.0,
        2.220446049250313e-16,
        0.0,
        0.0,
        0.0,
        0.0,
        1.0
      ],
      "name": "Sketchfab_model"
    },
    {
      "children": [
        2
      ],
      "matrix": [
        0.009999999776482582,
        0.0,
        0.0,
        0.0,
        0.0,
        0.0,
        0.009999999776482582,
        0.0,
        0.0,
        -0.009999999776482582,
        0.0,
        0.0,
        0.0,
        0.0,
        0.0,
        1.0
      ],
      "name": "Cow.fbx"
    },
    {
      "children": [
        3
      ],
      "name": "RootNode"
    },
    {
      "children": [
        4
      ],
      "matrix": [
        100.0,
        0.0,
        0.0,
        0.0,
        0.0,
        -1.629206793918314e-05,
        -99.99999999999868,
        0.0,
        0.0,
        99.99999999999868,
        -1.629206793918314e-05,
        0.0,
        0.0,
        0.0,
        0.0,
        1.0
      ],
      "name": "Armature"
    },
    {
      "children": [
        5,
        7,
        9,
        11,
        13,
        15,
        17,
        19,
        21,
        23,
        6,
        8,
        10,
        12,
        14,
        16,
        18,
        20,
        22
      ],
      "name": "Object_4"
    },
    {
      "children": [
        24
      ],
      "name": "_rootJoint"
    },
    {
      "matrix": [
        179.99999523162842,
        0.0,
        0.0,
        0.0,
        0.0,
        7.347881086862668e-15,
        -120.00000476837158,
        0.0,
        0.0,
        100.0,
        6.123233995736766e-15,
        0.0,
        -2.384185791015625e-06,
        9.5367431640625e-06,
        0.0,
        1.0
      ],
      "name": "Object_6"
    },
    {
      "mesh": 0,
      "name": "Object_7",
      "skin": 0
    },
    {
      "matrix": [
        60.00000238418579,
        0.0,
        0.0,
        0.0,
        0.0,
        2.4492934523054316e-15,
        -39.99999761581421,
        0.0,
        0.0,
        9.999999403953552,
        6.123233630763579e-16,
        0.0,
        -120.00000715255737,
        -109.99998092651367,
        0.0,
        1.0
      ],
      "name": "Object_8"
    },
    {
      "mesh": 1,
      "name": "Object_9",
      "skin": 0
    },
    {
      "matrix": [
        60.00000238418579,
        0.0,
        0.0,
        0.0,
        0.0,
        4.898586904610863e-15,
        -79.99999523162842,
        0.0,
        0.0,
        79.99999523162842,
        4.898586904610863e-15,
        0.0,
        240.00001907348633,
        60.0,
        0.0,
        1.0
      ],
      "name": "Object_10"
    },
    {
      "mesh": 2,
      "name": "Object_11",
      "skin": 0
    },
    {
      "matrix": [
        9.999999403953552,
        0.0,
        0.0,
        0.0,
        0.0,
        6.123233630763579e-16,
        -9.999999403953552,
        0.0,
        0.0,
        30.000001192092896,
        1.836970271715667e-15,
        0.0,
        250.00000953674316,
        129.99998092651367,
        -89.99999761581421,
        1.0
      ],
      "name": "Object_12"
    },
    {
      "mesh": 3,
      "name": "Object_13",
      "skin": 0
    },
    {
      "matrix": [
        9.999999403953552,
        0.0,
        0.0,
        0.0,
        0.0,
        6.123233630763579e-16,
        -9.999999403953552,
        0.0,
        0.0,
        30.000001192092896,
        1.836970271715667e-15,
        0.0,
        250.00000953674316,
        129.99998092651367,
        89.99999761581421,
        1.0
      ],
      "name": "Object_14"
    },
    {
      "mesh": 4,
      "name": "Object_15",
      "skin": 0
    },
    {
      "matrix": [
        39.99999761581421,
        0.0,
        0.0,
        0.0,
        0.0,
        2.4492934523054316e-15,
        -39.99999761581421,
        0.0,
        0.0,
        120.00000476837158,
        7.347881086862668e-15,
        0.0,
        139.99999523162842,
        -219.99999523162842,
        -79.99999523162842,
        1.0
      ],
      "name": "Object_16"
    },
    {
      "mesh": 5,
      "name": "Object_17",
      "skin": 0
    },
    {
      "matrix": [
        39.99999761581421,
        0.0,
        0.0,
        0.0,
        0.0,
        2.4492934523054316e-15,
        -39.99999761581421,
        0.0,
        0.0,
        120.00000476837158,
        7.347881086862668e-15,
        0.0,
        139.99999523162842,
        -219.99999523162842,
        79.99999523162842,
        1.0
      ],
      "name": "Object_18"
    },
    {
      "mesh": 6,
      "name": "Object_19",
      "skin": 0
    },
    {
      "matrix": [
        39.99999761581421,
        0.0,
        0.0,
        0.0,
        0.0,
        2.4492934523054316e-15,
        -39.99999761581421,
        0.0,
        0.0,
        120.00000476837158,
        7.347881086862668e-15,
        0.0,
        -140.0,
        -219.99999523162842,
        79.99999523162842,
        1.0
      ],
      "name": "Object_20"
    },
    {
      "mesh": 7,
      "name": "Object_21",
      "skin": 0
    },
    {
      "matrix": [
        39.99999761581421,
        0.0,
        0.0,
        0.0,
        0.0,
        2.4492934523054316e-15,
        -39.99999761581421,
        0.0,
        0.0,
        120.00000476837158,
        7.347881086862668e-15,
        0.0,
        -140.0,
        -219.99999523162842,
        -79.99999523162842,
        1.0
      ],
      "name": "Object_22"
    },
    {
      "mesh": 8,
      "name": "Object_23",
      "skin": 0
    },
    {
      "children": [
        25,
        34,
        37
      ],
      "name": "Root_00",
      "rotation": [
        0.7071068286895752,
        0.0,
        0.0,
        0.7071067094802856
      ],
      "translation": [
        -1.399999976158142,
        1.0587911840678754e-22,
        -3.4000000953674316
      ]
    },
    {
      "children": [
        26,
        29,
        32
      ],
      "name": "Spine_01",
      "rotation": [
        2.2772580265950637e-08,
        3.684680294213649e-08,
        -0.525731086730957,
        0.8506508469581604
      ],
      "scale": [
        0.9999999403953552,
        0.9999999403953552,
        1.0
      ],
      "translation": [
        0.0,
        2.4000000953674316,
        0.0
      ]
    },
    {
      "children": [
        27
      ],
      "name": "RClavice_02",
      "rotation": [
        -0.09355917572975159,
        0.20341825485229492,
        0.8854471445083618,
        -0.4072481095790863
      ],
      "scale": [
        0.9999999403953552,
        0.9999999403953552,
        1.0
      ],
      "translation": [
        2.9802322387695313e-08,
        3.5777089595794678,
        0.0
      ]
    },
    {
      "children": [
        28
      ],
      "name": "FRLeg_03",
      "rotation": [
        -0.21876955032348633,
        -1.0241630832297233e-07,
        0.12531597912311554,
        0.9676961302757263
      ],
      "scale": [
        1.0,
        0.9999999403953552,
        1.0
      ],
      "translation": [
        -4.76837058727142e-08,
        1.8330304622650146,
        -8.940696716308594e-08
      ]
    },
    {
      "name": "FRLeg_end_011",
      "rotation": [
        0.0,
        0.0,
        4.342698215903395e-24,
        1.0
      ],
      "translation": [
        2.220446049250313e-16,
        2.4000000953674316,
        0.0
      ]
    },
    {
      "children": [
        30
      ],
      "name": "LClavice_04",
      "rotation": [
        0.4458640217781067,
        -0.020041733980178833,
        0.7706979513168335,
        -0.4547837972640991
      ],
      "scale": [
        0.9999998807907104,
        1.0,
        0.9999999403953552
      ],
      "translation": [
        2.9802322387695313e-08,
        3.5777089595794678,
        0.0
      ]
    },
    {
      "children": [
        31
      ],
      "name": "FLLeg_05",
      "rotation": [
        0.24143673479557037,
        0.025220371782779694,
        -0.07261216640472412,
        0.96736741065979
      ],
      "scale": [
        0.9999999403953552,
        1.0,
        1.0
      ],
      "translation": [
        8.940696716308594e-08,
        1.8330304622650146,
        5.960464477539063e-08
      ]
    },
    {
      "name": "FLLeg_end_012",
      "rotation": [
        3.308722450212111e-24,
        -1.3877787807814457e-16,
        6.617444900424222e-24,
        1.0
      ],
      "translation": [
        -2.220446049250313e-16,
        2.4000000953674316,
        0.0
      ]
    },
    {
      "children": [
        33
      ],
      "name": "Head_06",
      "rotation": [
        1.2790483117086637e-09,
        -7.889640585290181e-08,
        -0.22975295782089233,
        0.973249077796936
      ],
      "translation": [
        2.9802322387695313e-08,
        3.5777089595794678,
        0.0
      ]
    },
    {
      "name": "Head_end_013",
      "rotation": [
        3.944304526105059e-31,
        -6.617444900424222e-24,
        -2.1009724600142155e-24,
        1.0
      ],
      "translation": [
        1.1102230246251565e-16,
        1.0000001192092896,
        0.0
      ]
    },
    {
      "children": [
        35
      ],
      "name": "PelvisL_07",
      "rotation": [
        -0.7071068286895752,
        0.0,
        0.0,
        0.7071067094802856
      ],
      "translation": [
        0.0,
        2.4000000953674316,
        0.0
      ]
    },
    {
      "children": [
        36
      ],
      "name": "BLLeg_08",
      "rotation": [
        -0.7071068286895752,
        0.0,
        0.0,
        0.7071067094802856
      ],
      "translation": [
        0.0,
        0.800000011920929,
        2.220446049250313e-16
      ]
    },
    {
      "name": "BLLeg_end_014",
      "rotation": [
        5.293955920339377e-23,
        0.0,
        0.0,
        1.0
      ],
      "translation": [
        0.0,
        2.4000000953674316,
        0.0
      ]
    },
    {
      "children": [
        38
      ],
      "name": "PelvisR_09",
      "rotation": [
        0.7071068286895752,
        -3.090862676913275e-08,
        -3.090862321641907e-08,
        0.7071067094802856
      ],
      "translation": [
        0.0,
        2.4000000953674316,
        0.0
      ]
    },
    {
      "children": [
        39
      ],
      "name": "BRLeg_010",
      "rotation": [
        0.7071068286895752,
        3.090862321641907e-08,
        -3.090862676913275e-08,
        0.7071067094802856
      ],
      "translation": [
        -3.178651297730539e-08,
        0.800000011920929,
        3.18259174569846e-09
      ]
    },
    {
      "name": "BRLeg_end_015",
      "rotation": [
        0.0,
        -0.0,
        -3.76158192263132e-37,
        1.0
      ],
      "translation": [
        0.0,
        2.4000000953674316,
        0.0
      ]
    }
  ],
  "samplers": [
    {
      "magFilter": 9728,
      "minFilter": 9728,
      "wrapS": 10497,
      "wrapT": 10497
    }
  ],
  "scene": 0,
  "scenes": [
    {
      "name": "Sketchfab_Scene",
      "nodes": [
        0
      ]
    }
  ],
  "skins": [
    {
      "inverseBindMatrices": 36,
      "joints": [
        5,
        24,
        25,
        26,
        27,
        28,
        29,
        30,
        31,
        32,
        33,
        34,
        35,
        36,
        37,
        38,
        39
      ],
      "skeleton": 5
    }
  ],
  "textures": [
    {
      "sampler": 0,
      "source": 0
    }
  ]
}
