# Blender 4.4.0
# www.blender.org
mtllib fireball_mesh.mtl
o Sphere
v 0.000000 0.561502 0.560408
v 0.000000 0.832660 -0.240928
v 0.000000 0.820216 -1.632728
v 0.000000 0.813702 -1.930512
v 0.038060 0.198351 0.914294
v 0.074658 0.381928 0.784409
v 0.108386 0.550827 0.560485
v 0.137950 0.698559 0.258044
v 0.161675 0.816736 -0.240812
v 0.165343 0.833727 -1.053632
v 0.159793 0.804478 -1.632616
v 0.158750 0.798067 -1.930400
v 0.074658 0.187249 0.914390
v 0.146447 0.360151 0.784571
v 0.212608 0.519213 0.560713
v 0.270598 0.658321 0.258323
v 0.317137 0.769576 -0.240470
v 0.324332 0.785496 -1.053288
v 0.313445 0.757869 -1.632282
v 0.311398 0.751763 -1.930069
v 0.108386 0.169221 0.914547
v 0.212608 0.324788 0.784833
v 0.308658 0.467874 0.561083
v 0.392847 0.592979 0.258775
v 0.460410 0.692994 -0.239914
v 0.470854 0.707175 -1.052729
v 0.455051 0.682180 -1.631741
v 0.452080 0.676569 -1.929531
v 0.137950 0.144960 0.914757
v 0.270598 0.277198 0.785186
v 0.392847 0.398783 0.561581
v 0.500000 0.505044 0.259385
v 0.585988 0.589932 -0.239166
v 0.599279 0.601775 -1.051977
v 0.579170 0.580320 -1.631013
v 0.575389 0.575374 -1.928808
v 0.162212 0.115397 0.915014
v 0.318190 0.219209 0.785616
v 0.461940 0.314596 0.562188
v 0.587938 0.397894 0.260127
v 0.689044 0.464353 -0.238254
v 0.704672 0.473345 -1.051061
v 0.681031 0.456204 -1.630125
v 0.676586 0.452069 -1.927926
v 0.000000 0.007151 0.926198
v 0.180240 0.081670 0.915306
v 0.353553 0.153050 0.786107
v 0.513280 0.218548 0.562881
v 0.653281 0.275648 0.260974
v 0.765620 0.321082 -0.237214
v 0.782982 0.326824 -1.050016
v 0.756720 0.314601 -1.629113
v 0.751782 0.311390 -1.926920
v 0.191342 0.045073 0.915624
v 0.375330 0.081263 0.786639
v 0.544895 0.114330 0.563633
v 0.693520 0.143003 0.261893
v 0.812772 0.165626 -0.236085
v 0.831200 0.167842 -1.048881
v 0.803329 0.160953 -1.628014
v 0.798087 0.158745 -1.925829
v 0.195090 0.007014 0.915954
v 0.382683 0.006607 0.787193
v 0.555570 0.005946 0.564414
v 0.707107 0.005057 0.262849
v 0.828689 0.003960 -0.234912
v 0.847475 0.002510 -1.047702
v 0.819065 0.001165 -1.626872
v 0.813723 -0.000000 -1.924694
v 0.191342 -0.031045 0.916284
v 0.375330 -0.068049 0.787747
v 0.544895 -0.102438 0.565196
v 0.693520 -0.132889 0.263805
v 0.812759 -0.157704 -0.233738
v 0.831181 -0.162818 -1.046522
v 0.803326 -0.158622 -1.625729
v 0.798087 -0.158746 -1.923559
v 0.180240 -0.067642 0.916602
v 0.353553 -0.139836 0.788280
v 0.513280 -0.206656 0.565948
v 0.653281 -0.265534 0.264724
v 0.765597 -0.313153 -0.232610
v 0.782947 -0.321789 -1.045388
v 0.756716 -0.312269 -1.624630
v 0.751782 -0.311390 -1.922467
v 0.162212 -0.101370 0.916895
v 0.318190 -0.205995 0.788771
v 0.461940 -0.302704 0.566641
v 0.587938 -0.387781 0.265571
v 0.689014 -0.456413 -0.231570
v 0.704627 -0.468294 -1.044343
v 0.681025 -0.453870 -1.623618
v 0.676586 -0.452069 -1.921461
v 0.137950 -0.130932 0.917151
v 0.270598 -0.263984 0.789202
v 0.392847 -0.386891 0.567248
v 0.500000 -0.494930 0.266313
v 0.585955 -0.581981 -0.230659
v 0.599231 -0.596705 -1.043427
v 0.579164 -0.577984 -1.622730
v 0.575389 -0.575374 -1.920580
v 0.108386 -0.155194 0.917362
v 0.212607 -0.311575 0.789555
v 0.308658 -0.455982 0.567747
v 0.392847 -0.582866 0.266922
v 0.460380 -0.685030 -0.229911
v 0.470809 -0.702087 -1.042675
v 0.455045 -0.679841 -1.622002
v 0.452080 -0.676568 -1.919856
v 0.074658 -0.173221 0.917518
v 0.146447 -0.346937 0.789818
v 0.212607 -0.507321 0.568117
v 0.270598 -0.648208 0.267375
v 0.317114 -0.761601 -0.229355
v 0.324297 -0.780393 -1.042116
v 0.313440 -0.755528 -1.621461
v 0.311398 -0.751763 -1.919318
v 0.038060 -0.184323 0.917615
v 0.074658 -0.368714 0.789980
v 0.108386 -0.538935 0.568345
v 0.137950 -0.688445 0.267654
v 0.161663 -0.808754 -0.229013
v 0.165325 -0.828612 -1.041772
v 0.159790 -0.802136 -1.621127
v 0.158749 -0.798067 -1.918987
v -0.000000 -0.188071 0.917647
v -0.000000 -0.376067 0.790034
v -0.000000 -0.549610 0.568422
v -0.000000 -0.702032 0.267747
v -0.000000 -0.824675 -0.228898
v 0.000000 -0.844894 -1.041656
v -0.000000 -0.817873 -1.621015
v -0.000000 -0.813702 -1.918875
v -0.038060 -0.184323 0.917615
v -0.074658 -0.368714 0.789980
v -0.108386 -0.538935 0.568345
v -0.137950 -0.688445 0.267653
v -0.161663 -0.808754 -0.229014
v -0.165325 -0.828612 -1.041772
v -0.159791 -0.802135 -1.621127
v -0.158750 -0.798067 -1.918987
v -0.074658 -0.173221 0.917518
v -0.146447 -0.346937 0.789818
v -0.212608 -0.507320 0.568117
v -0.270598 -0.648208 0.267375
v -0.317114 -0.761601 -0.229356
v -0.324297 -0.780393 -1.042116
v -0.313441 -0.755528 -1.621461
v -0.311398 -0.751762 -1.919318
v -0.108386 -0.155194 0.917362
v -0.212608 -0.311575 0.789555
v -0.308658 -0.455982 0.567747
v -0.392847 -0.582866 0.266922
v -0.460380 -0.685029 -0.229911
v -0.470809 -0.702087 -1.042675
v -0.455045 -0.679841 -1.622002
v -0.452080 -0.676568 -1.919856
v -0.137950 -0.130932 0.917151
v -0.270598 -0.263984 0.789202
v -0.392847 -0.386891 0.567248
v -0.500000 -0.494930 0.266313
v -0.585955 -0.581980 -0.230659
v -0.599231 -0.596705 -1.043427
v -0.579164 -0.577983 -1.622730
v -0.575389 -0.575374 -1.920580
v -0.162212 -0.101370 0.916895
v -0.318190 -0.205995 0.788771
v -0.461940 -0.302704 0.566641
v -0.587938 -0.387781 0.265570
v -0.689014 -0.456413 -0.231571
v -0.704627 -0.468294 -1.044343
v -0.681025 -0.453869 -1.623618
v -0.676586 -0.452068 -1.921461
v -0.180240 -0.067642 0.916602
v -0.353553 -0.139836 0.788280
v -0.513280 -0.206656 0.565948
v -0.653281 -0.265534 0.264724
v -0.765597 -0.313153 -0.232610
v -0.782947 -0.321789 -1.045388
v -0.756715 -0.312268 -1.624630
v -0.751782 -0.311390 -1.922467
v -0.191342 -0.031045 0.916284
v -0.375330 -0.068049 0.787747
v -0.544895 -0.102437 0.565196
v -0.693520 -0.132889 0.263804
v -0.812759 -0.157704 -0.233739
v -0.831181 -0.162818 -1.046522
v -0.803326 -0.158622 -1.625729
v -0.798087 -0.158745 -1.923559
v -0.195090 0.007014 0.915954
v -0.382683 0.006607 0.787193
v -0.555570 0.005946 0.564414
v -0.707107 0.005057 0.262849
v -0.828688 0.003960 -0.234912
v -0.847474 0.002510 -1.047702
v -0.819065 0.001165 -1.626871
v -0.813722 0.000000 -1.924694
v -0.191342 0.045073 0.915624
v -0.375330 0.081263 0.786639
v -0.544895 0.114330 0.563632
v -0.693520 0.143003 0.261893
v -0.812771 0.165626 -0.236086
v -0.831200 0.167842 -1.048881
v -0.803328 0.160953 -1.628014
v -0.798087 0.158746 -1.925829
v -0.180240 0.081670 0.915306
v -0.353553 0.153050 0.786106
v -0.513279 0.218548 0.562881
v -0.653281 0.275648 0.260974
v -0.765620 0.321082 -0.237214
v -0.782981 0.326824 -1.050015
v -0.756720 0.314601 -1.629113
v -0.751781 0.311390 -1.926920
v -0.162212 0.115397 0.915013
v -0.318189 0.219209 0.785616
v -0.461939 0.314596 0.562188
v -0.587938 0.397894 0.260127
v -0.689044 0.464353 -0.238255
v -0.704672 0.473345 -1.051061
v -0.681031 0.456204 -1.630125
v -0.676585 0.452069 -1.927926
v -0.137950 0.144960 0.914757
v -0.270598 0.277198 0.785185
v -0.392847 0.398783 0.561581
v -0.500000 0.505044 0.259384
v -0.585987 0.589932 -0.239166
v -0.599279 0.601774 -1.051977
v -0.579169 0.580320 -1.631013
v -0.575388 0.575374 -1.928808
v -0.161675 0.816735 -0.240813
v -0.317136 0.769576 -0.240470
v -0.460409 0.692994 -0.239915
v -0.585987 0.589932 -0.239166
v -0.689044 0.464353 -0.238255
v -0.765620 0.321082 -0.237214
v -0.108386 0.169221 0.914546
v -0.212607 0.324788 0.784832
v -0.308658 0.467874 0.561082
v -0.392847 0.592979 0.258775
v -0.460409 0.692994 -0.239915
v -0.470854 0.707175 -1.052730
v -0.455051 0.682180 -1.631741
v -0.452079 0.676568 -1.929531
v -0.812771 0.165626 -0.236086
v -0.828688 0.003960 -0.234912
v -0.812759 -0.157704 -0.233739
v -0.765597 -0.313153 -0.232610
v -0.689014 -0.456413 -0.231571
v -0.585955 -0.581980 -0.230659
v -0.460380 -0.685029 -0.229911
v -0.074658 0.187249 0.914390
v -0.146446 0.360151 0.784570
v -0.212607 0.519212 0.560712
v -0.270598 0.658321 0.258322
v -0.317136 0.769576 -0.240470
v -0.324331 0.785496 -1.053288
v -0.313445 0.757869 -1.632282
v -0.311398 0.751762 -1.930069
v -0.317114 -0.761601 -0.229356
v -0.161663 -0.808754 -0.229014
v -0.000000 -0.824675 -0.228898
v 0.161663 -0.808754 -0.229013
v 0.317114 -0.761601 -0.229355
v 0.460380 -0.685030 -0.229911
v 0.585955 -0.581981 -0.230659
v -0.038060 0.198350 0.914294
v -0.074658 0.381927 0.784409
v -0.108386 0.550827 0.560484
v -0.137950 0.698559 0.258043
v -0.161675 0.816735 -0.240813
v -0.165343 0.833726 -1.053632
v -0.159793 0.804478 -1.632616
v -0.158749 0.798066 -1.930400
v 0.689014 -0.456413 -0.231570
v 0.765597 -0.313153 -0.232610
v 0.812759 -0.157704 -0.233738
v 0.828689 0.003960 -0.234912
v 0.812772 0.165626 -0.236085
v 0.765620 0.321082 -0.237214
v 0.689044 0.464353 -0.238254
v 0.000000 0.202099 0.914261
v 0.000000 0.389280 0.784355
v 0.000000 0.712145 0.257950
v 0.000000 0.850012 -1.053748
v 0.585988 0.589932 -0.239166
v 0.460410 0.692994 -0.239914
v 0.317137 0.769576 -0.240470
v 0.161675 0.816736 -0.240812
v 0.000000 0.832660 -0.240928
vn -0.0000 0.8496 0.5275
vn -0.0000 0.9918 0.1279
vn -0.0000 0.9993 -0.0367
vn -0.0000 0.9998 -0.0219
vn 0.0653 0.3362 0.9395
vn 0.1345 0.6814 0.7194
vn 0.1650 0.8334 0.5275
vn 0.1830 0.9224 0.3403
vn 0.1933 0.9728 0.1280
vn 0.1951 0.9807 -0.0150
vn 0.1950 0.9801 -0.0366
vn 0.1950 0.9806 -0.0218
vn 0.1282 0.3173 0.9396
vn 0.2638 0.6423 0.7196
vn 0.3237 0.7853 0.5277
vn 0.3590 0.8690 0.3404
vn 0.3792 0.9164 0.1281
vn 0.3827 0.9238 -0.0149
vn 0.3825 0.9232 -0.0364
vn 0.3826 0.9237 -0.0216
vn 0.1862 0.2864 0.9398
vn 0.3831 0.5787 0.7199
vn 0.4701 0.7073 0.5280
vn 0.5212 0.7825 0.3407
vn 0.5506 0.8249 0.1283
vn 0.5556 0.8313 -0.0147
vn 0.5553 0.8309 -0.0361
vn 0.5554 0.8313 -0.0212
vn 0.2371 0.2448 0.9401
vn 0.4877 0.4932 0.7203
vn 0.5984 0.6022 0.5285
vn 0.6635 0.6659 0.3411
vn 0.7008 0.7017 0.1286
vn 0.7071 0.7070 -0.0144
vn 0.7068 0.7066 -0.0357
vn 0.7069 0.7070 -0.0207
vn 0.2790 0.1941 0.9405
vn 0.5738 0.3888 0.7208
vn 0.7039 0.4741 0.5290
vn 0.7804 0.5238 0.3415
vn 0.8241 0.5515 0.1289
vn 0.8314 0.5554 -0.0141
vn 0.8310 0.5551 -0.0353
vn 0.8313 0.5555 -0.0201
vn -0.0000 0.0087 1.0000
vn 0.3102 0.1362 0.9409
vn 0.6379 0.2696 0.7214
vn 0.7824 0.3278 0.5295
vn 0.8673 0.3616 0.3420
vn 0.9158 0.3802 0.1293
vn 0.9238 0.3826 -0.0137
vn 0.9234 0.3823 -0.0347
vn 0.9237 0.3827 -0.0194
vn 0.3295 0.0733 0.9413
vn 0.6775 0.1402 0.7220
vn 0.8309 0.1690 0.5302
vn 0.9210 0.1856 0.3425
vn 0.9723 0.1943 0.1297
vn 0.9807 0.1950 -0.0133
vn 0.9803 0.1948 -0.0341
vn 0.9806 0.1951 -0.0187
vn 0.3362 0.0077 0.9418
vn 0.6912 0.0054 0.7227
vn 0.8475 0.0038 0.5308
vn 0.9393 0.0024 0.3431
vn 0.9915 0.0009 0.1301
vn 0.9999 -0.0001 -0.0129
vn 0.9994 -0.0002 -0.0335
vn 0.9998 0.0001 -0.0179
vn 0.3300 -0.0579 0.9422
vn 0.6783 -0.1295 0.7233
vn 0.8315 -0.1616 0.5315
vn 0.9215 -0.1809 0.3436
vn 0.9726 -0.1926 0.1305
vn 0.9807 -0.1952 -0.0125
vn 0.9802 -0.1952 -0.0329
vn 0.9807 -0.1950 -0.0172
vn 0.3111 -0.1211 0.9426
vn 0.6393 -0.2594 0.7239
vn 0.7835 -0.3208 0.5321
vn 0.8683 -0.3573 0.3442
vn 0.9162 -0.3787 0.1309
vn 0.9238 -0.3828 -0.0121
vn 0.9233 -0.3827 -0.0323
vn 0.9238 -0.3826 -0.0164
vn 0.2801 -0.1795 0.9430
vn 0.5756 -0.3792 0.7245
vn 0.7054 -0.4676 0.5327
vn 0.7816 -0.5199 0.3447
vn 0.8247 -0.5502 0.1313
vn 0.8314 -0.5556 -0.0118
vn 0.8310 -0.5554 -0.0317
vn 0.8314 -0.5555 -0.0158
vn 0.2384 -0.2306 0.9434
vn 0.4897 -0.4843 0.7250
vn 0.6001 -0.5963 0.5332
vn 0.6648 -0.6625 0.3451
vn 0.7014 -0.7005 0.1316
vn 0.7070 -0.7071 -0.0114
vn 0.7067 -0.7069 -0.0313
vn 0.7071 -0.7070 -0.0152
vn 0.1874 -0.2727 0.9437
vn 0.3849 -0.5706 0.7254
vn 0.4716 -0.7020 0.5336
vn 0.5225 -0.7795 0.3455
vn 0.5511 -0.8239 0.1319
vn 0.5555 -0.8315 -0.0112
vn 0.5552 -0.8311 -0.0309
vn 0.5555 -0.8314 -0.0147
vn 0.1291 -0.3040 0.9439
vn 0.2652 -0.6348 0.7257
vn 0.3249 -0.7806 0.5339
vn 0.3599 -0.8666 0.3457
vn 0.3796 -0.9157 0.1321
vn 0.3826 -0.9238 -0.0110
vn 0.3824 -0.9235 -0.0306
vn 0.3827 -0.9238 -0.0143
vn 0.0658 -0.3233 0.9440
vn 0.1352 -0.6744 0.7259
vn 0.1657 -0.8290 0.5341
vn 0.1835 -0.9202 0.3459
vn 0.1935 -0.9721 0.1322
vn 0.1951 -0.9807 -0.0109
vn 0.1950 -0.9803 -0.0304
vn 0.1951 -0.9807 -0.0141
vn -0.0000 -0.3298 0.9441
vn -0.0000 -0.6877 0.7260
vn -0.0000 -0.8454 0.5342
vn -0.0000 -0.9383 0.3459
vn -0.0000 -0.9912 0.1323
vn -0.0000 -0.9999 -0.0108
vn -0.0000 -0.9995 -0.0303
vn -0.0000 -0.9999 -0.0140
vn -0.0658 -0.3233 0.9440
vn -0.1352 -0.6744 0.7259
vn -0.1657 -0.8290 0.5341
vn -0.1835 -0.9202 0.3459
vn -0.1935 -0.9721 0.1322
vn -0.1951 -0.9807 -0.0109
vn -0.1950 -0.9803 -0.0304
vn -0.1951 -0.9807 -0.0141
vn -0.1291 -0.3040 0.9439
vn -0.2652 -0.6348 0.7257
vn -0.3249 -0.7806 0.5339
vn -0.3599 -0.8666 0.3457
vn -0.3796 -0.9157 0.1321
vn -0.3826 -0.9238 -0.0110
vn -0.3824 -0.9235 -0.0306
vn -0.3827 -0.9238 -0.0143
vn -0.1874 -0.2727 0.9437
vn -0.3849 -0.5706 0.7254
vn -0.4716 -0.7020 0.5336
vn -0.5225 -0.7795 0.3455
vn -0.5511 -0.8239 0.1319
vn -0.5555 -0.8315 -0.0112
vn -0.5552 -0.8311 -0.0309
vn -0.5555 -0.8314 -0.0147
vn -0.2384 -0.2306 0.9434
vn -0.4897 -0.4843 0.7250
vn -0.6001 -0.5963 0.5332
vn -0.6648 -0.6625 0.3451
vn -0.7014 -0.7005 0.1316
vn -0.7070 -0.7071 -0.0114
vn -0.7067 -0.7069 -0.0313
vn -0.7071 -0.7070 -0.0152
vn -0.2801 -0.1795 0.9430
vn -0.5756 -0.3792 0.7245
vn -0.7054 -0.4676 0.5327
vn -0.7816 -0.5199 0.3447
vn -0.8247 -0.5502 0.1313
vn -0.8314 -0.5556 -0.0118
vn -0.8310 -0.5554 -0.0317
vn -0.8314 -0.5555 -0.0158
vn -0.3111 -0.1211 0.9426
vn -0.6393 -0.2594 0.7239
vn -0.7835 -0.3208 0.5321
vn -0.8683 -0.3573 0.3442
vn -0.9162 -0.3787 0.1309
vn -0.9238 -0.3828 -0.0121
vn -0.9233 -0.3827 -0.0323
vn -0.9238 -0.3826 -0.0164
vn -0.3300 -0.0579 0.9422
vn -0.6783 -0.1295 0.7233
vn -0.8315 -0.1616 0.5315
vn -0.9215 -0.1809 0.3436
vn -0.9726 -0.1926 0.1305
vn -0.9807 -0.1952 -0.0125
vn -0.9802 -0.1952 -0.0329
vn -0.9807 -0.1950 -0.0172
vn -0.3362 0.0077 0.9418
vn -0.6912 0.0054 0.7227
vn -0.8475 0.0038 0.5308
vn -0.9393 0.0024 0.3431
vn -0.9915 0.0009 0.1301
vn -0.9999 -0.0001 -0.0129
vn -0.9994 -0.0002 -0.0335
vn -0.9998 0.0001 -0.0179
vn -0.3295 0.0733 0.9413
vn -0.6775 0.1402 0.7220
vn -0.8309 0.1690 0.5302
vn -0.9210 0.1856 0.3425
vn -0.9723 0.1943 0.1297
vn -0.9807 0.1950 -0.0133
vn -0.9803 0.1948 -0.0341
vn -0.9806 0.1951 -0.0187
vn -0.3102 0.1362 0.9409
vn -0.6379 0.2696 0.7214
vn -0.7824 0.3278 0.5295
vn -0.8673 0.3616 0.3420
vn -0.9158 0.3802 0.1293
vn -0.9238 0.3826 -0.0137
vn -0.9234 0.3823 -0.0347
vn -0.9237 0.3827 -0.0194
vn -0.2790 0.1941 0.9405
vn -0.5738 0.3888 0.7208
vn -0.7039 0.4741 0.5290
vn -0.7804 0.5238 0.3415
vn -0.8241 0.5515 0.1289
vn -0.8314 0.5554 -0.0141
vn -0.8310 0.5551 -0.0353
vn -0.8313 0.5555 -0.0201
vn -0.2371 0.2448 0.9401
vn -0.4877 0.4932 0.7203
vn -0.5984 0.6022 0.5285
vn -0.6635 0.6659 0.3411
vn -0.7008 0.7017 0.1286
vn -0.7071 0.7070 -0.0144
vn -0.7068 0.7066 -0.0357
vn -0.7069 0.7070 -0.0207
vn -0.1862 0.2864 0.9398
vn -0.3831 0.5787 0.7199
vn -0.4701 0.7073 0.5280
vn -0.5212 0.7825 0.3407
vn -0.5506 0.8249 0.1283
vn -0.5556 0.8313 -0.0147
vn -0.5553 0.8309 -0.0361
vn -0.5554 0.8313 -0.0212
vn -0.1282 0.3173 0.9396
vn -0.2638 0.6423 0.7196
vn -0.3237 0.7853 0.5277
vn -0.3590 0.8690 0.3404
vn -0.3792 0.9164 0.1281
vn -0.3827 0.9238 -0.0149
vn -0.3825 0.9232 -0.0364
vn -0.3826 0.9237 -0.0216
vn -0.0654 0.3362 0.9395
vn -0.1345 0.6814 0.7194
vn -0.1650 0.8334 0.5275
vn -0.1830 0.9224 0.3403
vn -0.1933 0.9728 0.1280
vn -0.1951 0.9807 -0.0150
vn -0.1950 0.9801 -0.0366
vn -0.1950 0.9806 -0.0218
vn -0.0000 0.3427 0.9395
vn -0.0000 0.6946 0.7194
vn -0.0000 0.9403 0.3402
vn -0.0000 0.9999 -0.0150
vt 0.750000 0.715913
vt 0.750000 0.842180
vt 0.722168 0.842180
vt 0.719903 0.715912
vt 0.750000 0.598515
vt 0.719057 0.598515
vt 0.750000 0.490905
vt 0.718767 0.490904
vt 0.750000 0.378553
vt 0.718750 0.378553
vt 0.750000 0.254249
vt 0.718750 0.254248
vt 0.750000 0.129400
vt 0.718750 0.129400
vt 0.750000 0.004551
vt 0.718750 0.004551
vt 0.734426 0.993804
vt 0.687500 0.129400
vt 0.687500 0.004551
vt 0.703276 0.993819
vt 0.690981 0.842182
vt 0.689407 0.715911
vt 0.688485 0.598514
vt 0.687560 0.490901
vt 0.687500 0.378552
vt 0.687500 0.254248
vt 0.657251 0.598511
vt 0.656395 0.490896
vt 0.656251 0.378550
vt 0.656250 0.254249
vt 0.656250 0.129400
vt 0.656250 0.004551
vt 0.672120 0.993848
vt 0.659789 0.842186
vt 0.658185 0.715909
vt 0.625000 0.129400
vt 0.625000 0.004551
vt 0.640955 0.993891
vt 0.628592 0.842193
vt 0.626961 0.715906
vt 0.626016 0.598508
vt 0.625292 0.490890
vt 0.625001 0.378548
vt 0.625000 0.254249
vt 0.594046 0.490882
vt 0.593751 0.378546
vt 0.593750 0.254248
vt 0.593750 0.129400
vt 0.593750 0.004551
vt 0.609777 0.993946
vt 0.597386 0.842201
vt 0.595732 0.715902
vt 0.594779 0.598503
vt 0.566171 0.842211
vt 0.564499 0.715898
vt 0.563539 0.598498
vt 0.562799 0.490873
vt 0.562501 0.378543
vt 0.562500 0.254249
vt 0.562500 0.129400
vt 0.562500 0.004551
vt 0.578584 0.994011
vt 0.531251 0.378540
vt 0.531250 0.254248
vt 0.531250 0.129400
vt 0.531250 0.004551
vt 0.547374 0.994082
vt 0.534945 0.842223
vt 0.533261 0.715894
vt 0.532296 0.598493
vt 0.531552 0.490863
vt 0.503707 0.842234
vt 0.502017 0.715890
vt 0.501049 0.598487
vt 0.500303 0.490853
vt 0.500001 0.378537
vt 0.500000 0.254248
vt 0.500000 0.129400
vt 0.500000 0.004551
vt 0.516143 0.994158
vt 0.468751 0.378534
vt 0.468750 0.254249
vt 0.468750 0.129400
vt 0.468750 0.004551
vt 0.484893 0.994236
vt 0.472456 0.842247
vt 0.470767 0.715885
vt 0.469799 0.598481
vt 0.469053 0.490843
vt 0.439512 0.715880
vt 0.438546 0.598475
vt 0.437803 0.490833
vt 0.437501 0.378531
vt 0.437500 0.254248
vt 0.437500 0.129400
vt 0.437500 0.004551
vt 0.453623 0.994312
vt 0.441193 0.842259
vt 0.406250 0.254248
vt 0.406250 0.129400
vt 0.406250 0.004551
vt 0.422334 0.994383
vt 0.409918 0.842270
vt 0.408250 0.715876
vt 0.407290 0.598470
vt 0.406550 0.490824
vt 0.406251 0.378528
vt 0.376984 0.715872
vt 0.376030 0.598465
vt 0.375297 0.490816
vt 0.375001 0.378526
vt 0.375000 0.254248
vt 0.375000 0.129400
vt 0.375000 0.004551
vt 0.391028 0.994448
vt 0.378631 0.842281
vt 0.343750 0.254248
vt 0.343750 0.129400
vt 0.343750 0.004551
vt 0.359705 0.994502
vt 0.347335 0.842289
vt 0.345712 0.715869
vt 0.344768 0.598461
vt 0.343900 0.490809
vt 0.343751 0.378524
vt 0.313503 0.598458
vt 0.312563 0.490804
vt 0.312500 0.378522
vt 0.312500 0.254248
vt 0.312500 0.129400
vt 0.312500 0.004551
vt 0.328371 0.994546
vt 0.316031 0.842297
vt 0.314437 0.715867
vt 0.281250 0.129400
vt 0.281250 0.004551
vt 0.297026 0.994575
vt 0.284722 0.842302
vt 0.282434 0.715866
vt 0.281564 0.598456
vt 0.281267 0.490801
vt 0.281250 0.378521
vt 0.281250 0.254248
vt 0.250000 0.490800
vt 0.250000 0.378521
vt 0.250000 0.254248
vt 0.250000 0.129400
vt 0.250000 0.004551
vt 0.265676 0.994591
vt 0.250000 0.842304
vt 0.250000 0.715865
vt 0.250000 0.598455
vt 0.234324 0.994590
vt 0.215278 0.842302
vt 0.217592 0.715865
vt 0.218436 0.598456
vt 0.218732 0.490801
vt 0.218750 0.378521
vt 0.218750 0.254249
vt 0.218750 0.129400
vt 0.218750 0.004551
vt 0.187438 0.490804
vt 0.187499 0.378522
vt 0.187500 0.254249
vt 0.187500 0.129400
vt 0.187500 0.004551
vt 0.202974 0.994575
vt 0.183968 0.842297
vt 0.185563 0.715867
vt 0.186497 0.598458
vt 0.152665 0.842289
vt 0.154288 0.715869
vt 0.155232 0.598461
vt 0.156098 0.490809
vt 0.156249 0.378524
vt 0.156250 0.254249
vt 0.156250 0.129400
vt 0.156250 0.004551
vt 0.171629 0.994546
vt 0.124999 0.378526
vt 0.125000 0.254248
vt 0.125000 0.129400
vt 0.125000 0.004551
vt 0.140294 0.994503
vt 0.121369 0.842281
vt 0.123016 0.715872
vt 0.123970 0.598465
vt 0.124703 0.490816
vt 0.090082 0.842270
vt 0.091750 0.715876
vt 0.092710 0.598470
vt 0.093450 0.490824
vt 0.093749 0.378528
vt 0.093750 0.254249
vt 0.093750 0.129400
vt 0.093750 0.004551
vt 0.108972 0.994448
vt 0.062499 0.378531
vt 0.062500 0.254249
vt 0.062500 0.129400
vt 0.062500 0.004551
vt 0.077665 0.994383
vt 0.058807 0.842259
vt 0.060488 0.715880
vt 0.061454 0.598475
vt 0.062197 0.490833
vt 0.029233 0.715885
vt 0.030201 0.598481
vt 0.030947 0.490843
vt 0.031249 0.378534
vt 0.031250 0.254248
vt 0.031250 0.129400
vt 0.031250 0.004551
vt 0.046377 0.994311
vt 0.027544 0.842247
vt 0.000000 0.254249
vt 0.000000 0.129400
vt 0.000000 0.004551
vt 0.015107 0.994235
vt 0.001317 0.854197
vt 0.000033 0.714637
vt 0.000036 0.597959
vt -0.000025 0.489551
vt 0.000000 0.378537
vt 0.999697 0.490853
vt 0.998951 0.598487
vt 0.967704 0.598493
vt 0.968448 0.490863
vt 0.999997 0.378537
vt 0.968749 0.378540
vt 1.000000 0.254249
vt 0.968750 0.254249
vt 1.000000 0.129400
vt 0.968750 0.129400
vt 1.000000 0.004551
vt 0.968750 0.004551
vt 0.996293 0.842234
vt 0.983857 0.994158
vt 0.965055 0.842223
vt 0.997983 0.715890
vt 0.966739 0.715894
vt 0.937500 0.129400
vt 0.937500 0.004551
vt 0.952627 0.994082
vt 0.933829 0.842211
vt 0.935501 0.715899
vt 0.936461 0.598498
vt 0.937201 0.490873
vt 0.937499 0.378543
vt 0.937500 0.254249
vt 0.905221 0.598503
vt 0.905954 0.490882
vt 0.906249 0.378546
vt 0.906250 0.254249
vt 0.906250 0.129400
vt 0.906250 0.004551
vt 0.921416 0.994010
vt 0.902614 0.842201
vt 0.904268 0.715903
vt 0.875000 0.129400
vt 0.875000 0.004551
vt 0.890222 0.993946
vt 0.871408 0.842193
vt 0.873039 0.715906
vt 0.873984 0.598508
vt 0.874708 0.490890
vt 0.874999 0.378549
vt 0.875000 0.254249
vt 0.843603 0.490896
vt 0.843749 0.378551
vt 0.843750 0.254249
vt 0.843750 0.129400
vt 0.843750 0.004551
vt 0.859044 0.993891
vt 0.840211 0.842186
vt 0.841815 0.715909
vt 0.842749 0.598511
vt 0.827880 0.993848
vt 0.809019 0.842182
vt 0.810593 0.715911
vt 0.811515 0.598514
vt 0.812440 0.490901
vt 0.812499 0.378552
vt 0.812500 0.254249
vt 0.812500 0.129400
vt 0.812500 0.004551
vt 0.781233 0.490904
vt 0.781250 0.378553
vt 0.781250 0.254249
vt 0.781250 0.129400
vt 0.781250 0.004551
vt 0.796724 0.993819
vt 0.777832 0.842180
vt 0.780095 0.715912
vt 0.780949 0.598515
vt 0.765574 0.993804
s 1
f 282/1/255 281/2/254 5/3/5 6/4/6
f 1/5/1 282/1/255 6/4/6 7/6/7
f 283/7/256 1/5/1 7/6/7 8/8/8
f 2/9/2 283/7/256 8/8/8 9/10/9
f 284/11/257 2/9/2 9/10/9 10/12/10
f 3/13/3 284/11/257 10/12/10 11/14/11
f 4/15/4 3/13/3 11/14/11 12/16/12
f 281/2/254 45/17/45 5/3/5
f 12/16/12 11/14/11 19/18/19 20/19/20
f 5/3/5 45/20/45 13/21/13
f 6/4/6 5/3/5 13/21/13 14/22/14
f 7/6/7 6/4/6 14/22/14 15/23/15
f 8/8/8 7/6/7 15/23/15 16/24/16
f 9/10/9 8/8/8 16/24/16 17/25/17
f 10/12/10 9/10/9 17/25/17 18/26/18
f 11/14/11 10/12/10 18/26/18 19/18/19
f 16/24/16 15/23/15 23/27/23 24/28/24
f 17/25/17 16/24/16 24/28/24 25/29/25
f 18/26/18 17/25/17 25/29/25 26/30/26
f 19/18/19 18/26/18 26/30/26 27/31/27
f 20/19/20 19/18/19 27/31/27 28/32/28
f 13/21/13 45/33/45 21/34/21
f 14/22/14 13/21/13 21/34/21 22/35/22
f 15/23/15 14/22/14 22/35/22 23/27/23
f 28/32/28 27/31/27 35/36/35 36/37/36
f 21/34/21 45/38/45 29/39/29
f 22/35/22 21/34/21 29/39/29 30/40/30
f 23/27/23 22/35/22 30/40/30 31/41/31
f 24/28/24 23/27/23 31/41/31 32/42/32
f 25/29/25 24/28/24 32/42/32 33/43/33
f 26/30/26 25/29/25 33/43/33 34/44/34
f 27/31/27 26/30/26 34/44/34 35/36/35
f 33/43/33 32/42/32 40/45/40 41/46/41
f 34/44/34 33/43/33 41/46/41 42/47/42
f 35/36/35 34/44/34 42/47/42 43/48/43
f 36/37/36 35/36/35 43/48/43 44/49/44
f 29/39/29 45/50/45 37/51/37
f 30/40/30 29/39/29 37/51/37 38/52/38
f 31/41/31 30/40/30 38/52/38 39/53/39
f 32/42/32 31/41/31 39/53/39 40/45/40
f 38/52/38 37/51/37 46/54/46 47/55/47
f 39/53/39 38/52/38 47/55/47 48/56/48
f 40/45/40 39/53/39 48/56/48 49/57/49
f 41/46/41 40/45/40 49/57/49 50/58/50
f 42/47/42 41/46/41 50/58/50 51/59/51
f 43/48/43 42/47/42 51/59/51 52/60/52
f 44/49/44 43/48/43 52/60/52 53/61/53
f 37/51/37 45/62/45 46/54/46
f 51/59/51 50/58/50 58/63/58 59/64/59
f 52/60/52 51/59/51 59/64/59 60/65/60
f 53/61/53 52/60/52 60/65/60 61/66/61
f 46/54/46 45/67/45 54/68/54
f 47/55/47 46/54/46 54/68/54 55/69/55
f 48/56/48 47/55/47 55/69/55 56/70/56
f 49/57/49 48/56/48 56/70/56 57/71/57
f 50/58/50 49/57/49 57/71/57 58/63/58
f 55/69/55 54/68/54 62/72/62 63/73/63
f 56/70/56 55/69/55 63/73/63 64/74/64
f 57/71/57 56/70/56 64/74/64 65/75/65
f 58/63/58 57/71/57 65/75/65 66/76/66
f 59/64/59 58/63/58 66/76/66 67/77/67
f 60/65/60 59/64/59 67/77/67 68/78/68
f 61/66/61 60/65/60 68/78/68 69/79/69
f 54/68/54 45/80/45 62/72/62
f 67/77/67 66/76/66 74/81/74 75/82/75
f 68/78/68 67/77/67 75/82/75 76/83/76
f 69/79/69 68/78/68 76/83/76 77/84/77
f 62/72/62 45/85/45 70/86/70
f 63/73/63 62/72/62 70/86/70 71/87/71
f 64/74/64 63/73/63 71/87/71 72/88/72
f 65/75/65 64/74/64 72/88/72 73/89/73
f 66/76/66 65/75/65 73/89/73 74/81/74
f 72/88/72 71/87/71 79/90/79 80/91/80
f 73/89/73 72/88/72 80/91/80 81/92/81
f 74/81/74 73/89/73 81/92/81 82/93/82
f 75/82/75 74/81/74 82/93/82 83/94/83
f 76/83/76 75/82/75 83/94/83 84/95/84
f 77/84/77 76/83/76 84/95/84 85/96/85
f 70/86/70 45/97/45 78/98/78
f 71/87/71 70/86/70 78/98/78 79/90/79
f 84/95/84 83/94/83 91/99/91 92/100/92
f 85/96/85 84/95/84 92/100/92 93/101/93
f 78/98/78 45/102/45 86/103/86
f 79/90/79 78/98/78 86/103/86 87/104/87
f 80/91/80 79/90/79 87/104/87 88/105/88
f 81/92/81 80/91/80 88/105/88 89/106/89
f 82/93/82 81/92/81 89/106/89 90/107/90
f 83/94/83 82/93/82 90/107/90 91/99/91
f 88/105/88 87/104/87 95/108/95 96/109/96
f 89/106/89 88/105/88 96/109/96 97/110/97
f 90/107/90 89/106/89 97/110/97 98/111/98
f 91/99/91 90/107/90 98/111/98 99/112/99
f 92/100/92 91/99/91 99/112/99 100/113/100
f 93/101/93 92/100/92 100/113/100 101/114/101
f 86/103/86 45/115/45 94/116/94
f 87/104/87 86/103/86 94/116/94 95/108/95
f 100/113/100 99/112/99 107/117/107 108/118/108
f 101/114/101 100/113/100 108/118/108 109/119/109
f 94/116/94 45/120/45 102/121/102
f 95/108/95 94/116/94 102/121/102 103/122/103
f 96/109/96 95/108/95 103/122/103 104/123/104
f 97/110/97 96/109/96 104/123/104 105/124/105
f 98/111/98 97/110/97 105/124/105 106/125/106
f 99/112/99 98/111/98 106/125/106 107/117/107
f 105/124/105 104/123/104 112/126/112 113/127/113
f 106/125/106 105/124/105 113/127/113 114/128/114
f 107/117/107 106/125/106 114/128/114 115/129/115
f 108/118/108 107/117/107 115/129/115 116/130/116
f 109/119/109 108/118/108 116/130/116 117/131/117
f 102/121/102 45/132/45 110/133/110
f 103/122/103 102/121/102 110/133/110 111/134/111
f 104/123/104 103/122/103 111/134/111 112/126/112
f 117/131/117 116/130/116 124/135/124 125/136/125
f 110/133/110 45/137/45 118/138/118
f 111/134/111 110/133/110 118/138/118 119/139/119
f 112/126/112 111/134/111 119/139/119 120/140/120
f 113/127/113 112/126/112 120/140/120 121/141/121
f 114/128/114 113/127/113 121/141/121 122/142/122
f 115/129/115 114/128/114 122/142/122 123/143/123
f 116/130/116 115/129/115 123/143/123 124/135/124
f 122/142/122 121/141/121 129/144/129 130/145/130
f 123/143/123 122/142/122 130/145/130 131/146/131
f 124/135/124 123/143/123 131/146/131 132/147/132
f 125/136/125 124/135/124 132/147/132 133/148/133
f 118/138/118 45/149/45 126/150/126
f 119/139/119 118/138/118 126/150/126 127/151/127
f 120/140/120 119/139/119 127/151/127 128/152/128
f 121/141/121 120/140/120 128/152/128 129/144/129
f 126/150/126 45/153/45 134/154/134
f 127/151/127 126/150/126 134/154/134 135/155/135
f 128/152/128 127/151/127 135/155/135 136/156/136
f 129/144/129 128/152/128 136/156/136 137/157/137
f 130/145/130 129/144/129 137/157/137 138/158/138
f 131/146/131 130/145/130 138/158/138 139/159/139
f 132/147/132 131/146/131 139/159/139 140/160/140
f 133/148/133 132/147/132 140/160/140 141/161/141
f 138/158/138 137/157/137 145/162/145 146/163/146
f 139/159/139 138/158/138 146/163/146 147/164/147
f 140/160/140 139/159/139 147/164/147 148/165/148
f 141/161/141 140/160/140 148/165/148 149/166/149
f 134/154/134 45/167/45 142/168/142
f 135/155/135 134/154/134 142/168/142 143/169/143
f 136/156/136 135/155/135 143/169/143 144/170/144
f 137/157/137 136/156/136 144/170/144 145/162/145
f 143/169/143 142/168/142 150/171/150 151/172/151
f 144/170/144 143/169/143 151/172/151 152/173/152
f 145/162/145 144/170/144 152/173/152 153/174/153
f 146/163/146 145/162/145 153/174/153 154/175/154
f 147/164/147 146/163/146 154/175/154 155/176/155
f 148/165/148 147/164/147 155/176/155 156/177/156
f 149/166/149 148/165/148 156/177/156 157/178/157
f 142/168/142 45/179/45 150/171/150
f 155/176/155 154/175/154 162/180/162 163/181/163
f 156/177/156 155/176/155 163/181/163 164/182/164
f 157/178/157 156/177/156 164/182/164 165/183/165
f 150/171/150 45/184/45 158/185/158
f 151/172/151 150/171/150 158/185/158 159/186/159
f 152/173/152 151/172/151 159/186/159 160/187/160
f 153/174/153 152/173/152 160/187/160 161/188/161
f 154/175/154 153/174/153 161/188/161 162/180/162
f 159/186/159 158/185/158 166/189/166 167/190/167
f 160/187/160 159/186/159 167/190/167 168/191/168
f 161/188/161 160/187/160 168/191/168 169/192/169
f 162/180/162 161/188/161 169/192/169 170/193/170
f 163/181/163 162/180/162 170/193/170 171/194/171
f 164/182/164 163/181/163 171/194/171 172/195/172
f 165/183/165 164/182/164 172/195/172 173/196/173
f 158/185/158 45/197/45 166/189/166
f 171/194/171 170/193/170 178/198/178 179/199/179
f 172/195/172 171/194/171 179/199/179 180/200/180
f 173/196/173 172/195/172 180/200/180 181/201/181
f 166/189/166 45/202/45 174/203/174
f 167/190/167 166/189/166 174/203/174 175/204/175
f 168/191/168 167/190/167 175/204/175 176/205/176
f 169/192/169 168/191/168 176/205/176 177/206/177
f 170/193/170 169/192/169 177/206/177 178/198/178
f 176/205/176 175/204/175 183/207/183 184/208/184
f 177/206/177 176/205/176 184/208/184 185/209/185
f 178/198/178 177/206/177 185/209/185 186/210/186
f 179/199/179 178/198/178 186/210/186 187/211/187
f 180/200/180 179/199/179 187/211/187 188/212/188
f 181/201/181 180/200/180 188/212/188 189/213/189
f 174/203/174 45/214/45 182/215/182
f 175/204/175 174/203/174 182/215/182 183/207/183
f 188/212/188 187/211/187 195/216/195 196/217/196
f 189/213/189 188/212/188 196/217/196 197/218/197
f 182/215/182 45/219/45 190/220/190
f 183/207/183 182/215/182 190/220/190 191/221/191
f 184/208/184 183/207/183 191/221/191 192/222/192
f 185/209/185 184/208/184 192/222/192 193/223/193
f 186/210/186 185/209/185 193/223/193 194/224/194
f 187/211/187 186/210/186 194/224/194 195/216/195
f 193/225/193 192/226/192 200/227/200 201/228/201
f 194/229/194 193/225/193 201/228/201 202/230/202
f 195/231/195 194/229/194 202/230/202 203/232/203
f 196/233/196 195/231/195 203/232/203 204/234/204
f 197/235/197 196/233/196 204/234/204 205/236/205
f 190/237/190 45/238/45 198/239/198
f 191/240/191 190/237/190 198/239/198 199/241/199
f 192/226/192 191/240/191 199/241/199 200/227/200
f 205/236/205 204/234/204 212/242/212 213/243/213
f 198/239/198 45/244/45 206/245/206
f 199/241/199 198/239/198 206/245/206 207/246/207
f 200/227/200 199/241/199 207/246/207 208/247/208
f 201/228/201 200/227/200 208/247/208 209/248/209
f 202/230/202 201/228/201 209/248/209 210/249/210
f 203/232/203 202/230/202 210/249/210 211/250/211
f 204/234/204 203/232/203 211/250/211 212/242/212
f 209/248/209 208/247/208 216/251/216 217/252/217
f 210/249/210 209/248/209 217/252/217 218/253/218
f 211/250/211 210/249/210 218/253/218 219/254/219
f 212/242/212 211/250/211 219/254/219 220/255/220
f 213/243/213 212/242/212 220/255/220 221/256/221
f 206/245/206 45/257/45 214/258/214
f 207/246/207 206/245/206 214/258/214 215/259/215
f 208/247/208 207/246/207 215/259/215 216/251/216
f 221/256/221 220/255/220 228/260/228 229/261/229
f 214/258/214 45/262/45 222/263/222
f 215/259/215 214/258/214 222/263/222 223/264/223
f 216/251/216 215/259/215 223/264/223 224/265/224
f 217/252/217 216/251/216 224/265/224 225/266/225
f 218/253/218 217/252/217 225/266/225 226/267/226
f 219/254/219 218/253/218 226/267/226 227/268/227
f 220/255/220 219/254/219 227/268/227 228/260/228
f 226/267/226 225/266/225 239/269/233 240/270/234
f 227/268/227 226/267/226 240/270/234 241/271/235
f 228/260/228 227/268/227 241/271/235 242/272/236
f 229/261/229 228/260/228 242/272/236 243/273/237
f 222/263/222 45/274/45 236/275/230
f 223/264/223 222/263/222 236/275/230 237/276/231
f 224/265/224 223/264/223 237/276/231 238/277/232
f 225/266/225 224/265/224 238/277/232 239/269/233
f 236/275/230 45/278/45 251/279/238
f 237/276/231 236/275/230 251/279/238 252/280/239
f 238/277/232 237/276/231 252/280/239 253/281/240
f 239/269/233 238/277/232 253/281/240 254/282/241
f 240/270/234 239/269/233 254/282/241 255/283/242
f 241/271/235 240/270/234 255/283/242 256/284/243
f 242/272/236 241/271/235 256/284/243 257/285/244
f 243/273/237 242/272/236 257/285/244 258/286/245
f 255/283/242 254/282/241 269/287/249 270/288/250
f 256/284/243 255/283/242 270/288/250 271/289/251
f 257/285/244 256/284/243 271/289/251 272/290/252
f 258/286/245 257/285/244 272/290/252 273/291/253
f 251/279/238 45/292/45 266/293/246
f 252/280/239 251/279/238 266/293/246 267/294/247
f 253/281/240 252/280/239 267/294/247 268/295/248
f 254/282/241 253/281/240 268/295/248 269/287/249
f 267/294/247 266/293/246 281/2/254 282/1/255
f 268/295/248 267/294/247 282/1/255 1/5/1
f 269/287/249 268/295/248 1/5/1 283/7/256
f 270/288/250 269/287/249 283/7/256 2/9/2
f 271/289/251 270/288/250 2/9/2 284/11/257
f 272/290/252 271/289/251 284/11/257 3/13/3
f 273/291/253 272/290/252 3/13/3 4/15/4
f 266/293/246 45/296/45 281/2/254
l 289 230
l 232 233
l 233 234
l 235 244
l 245 246
l 248 247
l 250 249
l 259 260
l 231 232
l 230 231
l 262 263
l 263 264
l 264 265
l 274 275
l 275 276
l 277 278
l 279 280
l 250 259
l 248 249
l 260 261
l 261 262
l 234 235
l 244 245
l 246 247
l 286 287
l 287 288
l 288 289
l 265 274
l 277 276
l 279 278
l 280 285
l 285 286
